 0 
SECTION
 2 
HEADER
 9 
$ACADVER
 1 
AC1004
 9 
$EXTMIN
 10 
0.0
 20 
0.0
 9 
$EXTMAX
 10 
48.26
 20 
63.5
 9 
$LIMMIN
 10 
0.0
 20 
0.0
 9 
$LIMMAX
 10 
48.26
 20 
63.5
 9 
$INSBASE
 10 
0.0
 20 
0.0
 9 
$VIEWCTR
 10 
24.13
 20 
31.75
 9 
$VIEWSIZE
 40 
63.5
 9 
$ORTHOMODE
 70 
 0 
 9 
$REGENMODE
 70 
 1 
 9 
$FILLMODE
 70 
 1 
 9 
$QTEXTMODE
 70 
 0 
 9 
$DRAGMODE
 70 
 2 
 9 
$LTSCALE
 40 
1.0
 9 
$OSMODE
 70 
 0 
 9 
$ATTMODE
 70 
 1 
 9 
$TEXTSIZE
 40 
0.2
 9 
$TRACEWID
 40 
0.05
 9 
$TEXTSTYLE
 7 
STANDARD
 9 
$CLAYER
 8 
0
 9 
$CELTYPE
 6 
BYLAYER
 9 
$CECOLOR
 62 
 256 
 9 
$DIMSCALE
 40 
1.0
 9 
$DIMLFAC
 40 
1.0
 9 
$LUNITS
 70 
 2 
 9 
$LUPREC
 70 
 4 
 9 
$AXISMODE
 70 
 0 
 9 
$AXISUNIT
 10 
0.0
 20 
0.0
 9 
$SKETCHINC
 40 
0.1
 9 
$MENU
 1 
acad
 9 
$ELEVATION
 40 
0.0
 9 
$THICKNESS
 40 
0.0
 9 
$VIEWDIR
 10 
0.0
 20 
0.0
 30 
1.0
 9 
$LIMCHECK
 70 
 0 
 9 
$BLIPMODE
 70 
 1 
 9 
$FASTZOOM
 70 
 1 
 9 
$SKPOLY
 70 
 0 
 9 
$ANGBASE
 50 
0.0
 9 
$ANGDIR
 70 
 0 
 9 
$PDMODE
 70 
 0 
 9 
$PDSIZE
 40 
0.0
 9 
$PLINEWID
 40 
0.0
 9 
$COORDS
 70 
 0 
 9 
$ATTDIA
 70 
 0 
 9 
$ATTREQ
 70 
 1 
 0 
ENDSEC
 0 
SECTION
 2 
TABLES
 0 
TABLE
 2 
LTYPE
 70 
 10 
 0 
LTYPE
 2 
CONTINUOUS
 70 
 64 
 3 
Solid line
 72 
 65 
 73 
 0 
 40 
0.0
 0 
ENDTAB
 0 
TABLE
 2 
LAYER
 70 
 153 
 0 
LAYER
 2 
0
 70 
 64 
 62 
 7 
 6 
CONTINUOUS
 0 
ENDTAB
 0 
ENDSEC
 0 
SECTION
 2 
BLOCKS
 0 
ENDSEC
 0 
SECTION
 2 
ENTITIES
 0 
LINE
 8 
0
 62 
 7 
 10 
0.0
 20 
63.5
 11 
48.26
 21 
63.5
 0 
LINE
 8 
0
 62 
 7 
 10 
48.26
 20 
63.5
 11 
48.26
 21 
0.0
 0 
LINE
 8 
0
 62 
 7 
 10 
48.26
 20 
0.0
 11 
0.0
 21 
0.0
 0 
LINE
 8 
0
 62 
 7 
 10 
0.0
 20 
0.0
 11 
0.0
 21 
63.5
 0 
LINE
 8 
0
 62 
 7 
 10 
29.642
 20 
48.311
 11 
29.464
 21 
48.133
 0 
LINE
 8 
0
 62 
 7 
 10 
29.464
 20 
48.133
 11 
29.464
 21 
47.803
 0 
LINE
 8 
0
 62 
 7 
 10 
29.464
 20 
47.803
 11 
29.642
 21 
47.625
 0 
LINE
 8 
0
 62 
 7 
 10 
29.642
 20 
47.625
 11 
30.302
 21 
47.625
 0 
LINE
 8 
0
 62 
 7 
 10 
30.302
 20 
47.625
 11 
30.48
 21 
47.803
 0 
LINE
 8 
0
 62 
 7 
 10 
30.48
 20 
47.803
 11 
30.48
 21 
48.311
 0 
LINE
 8 
0
 62 
 7 
 10 
30.48
 20 
48.311
 11 
30.15
 21 
48.311
 0 
LINE
 8 
0
 62 
 7 
 10 
30.15
 20 
48.311
 11 
30.15
 21 
48.133
 0 
LINE
 8 
0
 62 
 7 
 10 
30.48
 20 
48.641
 11 
29.464
 21 
48.641
 0 
LINE
 8 
0
 62 
 7 
 10 
29.464
 20 
48.641
 11 
30.15
 21 
49.327
 0 
LINE
 8 
0
 62 
 7 
 10 
29.464
 20 
49.327
 11 
30.48
 21 
49.327
 0 
LINE
 8 
0
 62 
 7 
 10 
29.464
 20 
49.657
 11 
29.464
 21 
50.165
 0 
LINE
 8 
0
 62 
 7 
 10 
29.464
 20 
50.165
 11 
29.642
 21 
50.343
 0 
LINE
 8 
0
 62 
 7 
 10 
29.642
 20 
50.343
 11 
30.302
 21 
50.343
 0 
LINE
 8 
0
 62 
 7 
 10 
30.302
 20 
50.343
 11 
30.48
 21 
50.165
 0 
LINE
 8 
0
 62 
 7 
 10 
30.48
 20 
50.165
 11 
30.48
 21 
49.657
 0 
LINE
 8 
0
 62 
 7 
 10 
29.464
 20 
49.835
 11 
30.48
 21 
49.835
 0 
CIRCLE
 8 
0
 62 
 7 
 10 
29.21
 20 
2.54
 40 
0.965
 0 
CIRCLE
 8 
0
 62 
 7 
 10 
29.21
 20 
2.54
 40 
0.508
 0 
CIRCLE
 8 
0
 62 
 7 
 10 
26.67
 20 
2.54
 40 
0.965
 0 
CIRCLE
 8 
0
 62 
 7 
 10 
26.67
 20 
2.54
 40 
0.508
 0 
CIRCLE
 8 
0
 62 
 7 
 10 
24.13
 20 
2.54
 40 
0.965
 0 
CIRCLE
 8 
0
 62 
 7 
 10 
24.13
 20 
2.54
 40 
0.508
 0 
CIRCLE
 8 
0
 62 
 7 
 10 
21.59
 20 
2.54
 40 
0.965
 0 
CIRCLE
 8 
0
 62 
 7 
 10 
21.59
 20 
2.54
 40 
0.508
 0 
LINE
 8 
0
 62 
 7 
 10 
36.627
 20 
5.131
 11 
36.449
 21 
4.953
 0 
LINE
 8 
0
 62 
 7 
 10 
36.449
 20 
4.953
 11 
36.449
 21 
4.623
 0 
LINE
 8 
0
 62 
 7 
 10 
36.449
 20 
4.623
 11 
36.627
 21 
4.445
 0 
LINE
 8 
0
 62 
 7 
 10 
36.627
 20 
4.445
 11 
37.287
 21 
4.445
 0 
LINE
 8 
0
 62 
 7 
 10 
37.287
 20 
4.445
 11 
37.465
 21 
4.623
 0 
LINE
 8 
0
 62 
 7 
 10 
37.465
 20 
4.623
 11 
37.465
 21 
5.131
 0 
LINE
 8 
0
 62 
 7 
 10 
37.465
 20 
5.131
 11 
37.135
 21 
5.131
 0 
LINE
 8 
0
 62 
 7 
 10 
37.135
 20 
5.131
 11 
37.135
 21 
4.953
 0 
LINE
 8 
0
 62 
 7 
 10 
37.465
 20 
5.461
 11 
36.449
 21 
5.461
 0 
LINE
 8 
0
 62 
 7 
 10 
36.449
 20 
5.461
 11 
37.135
 21 
6.147
 0 
LINE
 8 
0
 62 
 7 
 10 
36.449
 20 
6.147
 11 
37.465
 21 
6.147
 0 
LINE
 8 
0
 62 
 7 
 10 
36.449
 20 
6.477
 11 
36.449
 21 
6.985
 0 
LINE
 8 
0
 62 
 7 
 10 
36.449
 20 
6.985
 11 
36.627
 21 
7.163
 0 
LINE
 8 
0
 62 
 7 
 10 
36.627
 20 
7.163
 11 
37.287
 21 
7.163
 0 
LINE
 8 
0
 62 
 7 
 10 
37.287
 20 
7.163
 11 
37.465
 21 
6.985
 0 
LINE
 8 
0
 62 
 7 
 10 
37.465
 20 
6.985
 11 
37.465
 21 
6.477
 0 
LINE
 8 
0
 62 
 7 
 10 
36.449
 20 
6.655
 11 
37.465
 21 
6.655
 0 
LINE
 8 
0
 62 
 7 
 10 
38.989
 20 
4.445
 11 
39.497
 21 
4.445
 0 
LINE
 8 
0
 62 
 7 
 10 
39.497
 20 
4.445
 11 
39.827
 21 
4.775
 0 
LINE
 8 
0
 62 
 7 
 10 
39.827
 20 
4.775
 11 
39.497
 21 
5.131
 0 
LINE
 8 
0
 62 
 7 
 10 
39.497
 20 
5.131
 11 
38.989
 21 
5.131
 0 
LINE
 8 
0
 62 
 7 
 10 
39.827
 20 
4.775
 11 
40.005
 21 
4.775
 0 
LINE
 8 
0
 62 
 7 
 10 
38.989
 20 
5.791
 11 
39.167
 21 
5.791
 0 
LINE
 8 
0
 62 
 7 
 10 
40.005
 20 
5.639
 11 
40.005
 21 
5.969
 0 
LINE
 8 
0
 62 
 7 
 10 
39.497
 20 
5.639
 11 
39.497
 21 
5.791
 0 
LINE
 8 
0
 62 
 7 
 10 
39.497
 20 
5.791
 11 
40.005
 21 
5.791
 0 
LINE
 8 
0
 62 
 7 
 10 
39.319
 20 
6.477
 11 
40.005
 21 
6.477
 0 
LINE
 8 
0
 62 
 7 
 10 
39.675
 20 
6.477
 11 
39.319
 21 
6.807
 0 
LINE
 8 
0
 62 
 7 
 10 
39.319
 20 
6.807
 11 
39.319
 21 
6.985
 0 
LINE
 8 
0
 62 
 7 
 10 
39.319
 20 
6.985
 11 
39.497
 21 
7.163
 0 
LINE
 8 
0
 62 
 7 
 10 
39.497
 20 
7.163
 11 
40.005
 21 
7.163
 0 
LINE
 8 
0
 62 
 7 
 10 
0.635
 20 
57.15
 11 
23.495
 21 
57.15
 0 
LINE
 8 
0
 62 
 7 
 10 
0.635
 20 
57.15
 11 
0.635
 21 
6.35
 0 
LINE
 8 
0
 62 
 7 
 10 
0.635
 20 
6.35
 11 
23.495
 21 
6.35
 0 
LINE
 8 
0
 62 
 7 
 10 
23.495
 20 
6.35
 11 
23.495
 21 
57.15
 0 
CIRCLE
 8 
0
 62 
 7 
 10 
1.905
 20 
13.335
 40 
0.965
 0 
CIRCLE
 8 
0
 62 
 7 
 10 
1.905
 20 
13.335
 40 
0.508
 0 
CIRCLE
 8 
0
 62 
 7 
 10 
22.225
 20 
13.335
 40 
0.965
 0 
CIRCLE
 8 
0
 62 
 7 
 10 
22.225
 20 
13.335
 40 
0.508
 0 
CIRCLE
 8 
0
 62 
 7 
 10 
1.905
 20 
15.875
 40 
0.965
 0 
CIRCLE
 8 
0
 62 
 7 
 10 
1.905
 20 
15.875
 40 
0.508
 0 
CIRCLE
 8 
0
 62 
 7 
 10 
1.905
 20 
18.415
 40 
0.965
 0 
CIRCLE
 8 
0
 62 
 7 
 10 
1.905
 20 
18.415
 40 
0.508
 0 
CIRCLE
 8 
0
 62 
 7 
 10 
1.905
 20 
20.955
 40 
0.965
 0 
CIRCLE
 8 
0
 62 
 7 
 10 
1.905
 20 
20.955
 40 
0.508
 0 
CIRCLE
 8 
0
 62 
 7 
 10 
1.905
 20 
23.495
 40 
0.965
 0 
CIRCLE
 8 
0
 62 
 7 
 10 
1.905
 20 
23.495
 40 
0.508
 0 
CIRCLE
 8 
0
 62 
 7 
 10 
1.905
 20 
26.035
 40 
0.965
 0 
CIRCLE
 8 
0
 62 
 7 
 10 
1.905
 20 
26.035
 40 
0.508
 0 
CIRCLE
 8 
0
 62 
 7 
 10 
1.905
 20 
28.575
 40 
0.965
 0 
CIRCLE
 8 
0
 62 
 7 
 10 
1.905
 20 
28.575
 40 
0.508
 0 
CIRCLE
 8 
0
 62 
 7 
 10 
1.905
 20 
31.115
 40 
0.965
 0 
CIRCLE
 8 
0
 62 
 7 
 10 
1.905
 20 
31.115
 40 
0.508
 0 
CIRCLE
 8 
0
 62 
 7 
 10 
1.905
 20 
33.655
 40 
0.965
 0 
CIRCLE
 8 
0
 62 
 7 
 10 
1.905
 20 
33.655
 40 
0.508
 0 
CIRCLE
 8 
0
 62 
 7 
 10 
1.905
 20 
36.195
 40 
0.965
 0 
CIRCLE
 8 
0
 62 
 7 
 10 
1.905
 20 
36.195
 40 
0.508
 0 
CIRCLE
 8 
0
 62 
 7 
 10 
1.905
 20 
38.735
 40 
0.965
 0 
CIRCLE
 8 
0
 62 
 7 
 10 
1.905
 20 
38.735
 40 
0.508
 0 
CIRCLE
 8 
0
 62 
 7 
 10 
1.905
 20 
41.275
 40 
0.965
 0 
CIRCLE
 8 
0
 62 
 7 
 10 
1.905
 20 
41.275
 40 
0.508
 0 
CIRCLE
 8 
0
 62 
 7 
 10 
1.905
 20 
43.815
 40 
0.965
 0 
CIRCLE
 8 
0
 62 
 7 
 10 
1.905
 20 
43.815
 40 
0.508
 0 
CIRCLE
 8 
0
 62 
 7 
 10 
1.905
 20 
46.355
 40 
0.965
 0 
CIRCLE
 8 
0
 62 
 7 
 10 
1.905
 20 
46.355
 40 
0.508
 0 
CIRCLE
 8 
0
 62 
 7 
 10 
1.905
 20 
48.895
 40 
0.965
 0 
CIRCLE
 8 
0
 62 
 7 
 10 
1.905
 20 
48.895
 40 
0.508
 0 
CIRCLE
 8 
0
 62 
 7 
 10 
1.905
 20 
51.435
 40 
0.965
 0 
CIRCLE
 8 
0
 62 
 7 
 10 
1.905
 20 
51.435
 40 
0.508
 0 
CIRCLE
 8 
0
 62 
 7 
 10 
22.225
 20 
15.875
 40 
0.965
 0 
CIRCLE
 8 
0
 62 
 7 
 10 
22.225
 20 
15.875
 40 
0.508
 0 
CIRCLE
 8 
0
 62 
 7 
 10 
22.225
 20 
18.415
 40 
0.965
 0 
CIRCLE
 8 
0
 62 
 7 
 10 
22.225
 20 
18.415
 40 
0.508
 0 
CIRCLE
 8 
0
 62 
 7 
 10 
22.225
 20 
20.955
 40 
0.965
 0 
CIRCLE
 8 
0
 62 
 7 
 10 
22.225
 20 
20.955
 40 
0.508
 0 
CIRCLE
 8 
0
 62 
 7 
 10 
22.225
 20 
23.495
 40 
0.965
 0 
CIRCLE
 8 
0
 62 
 7 
 10 
22.225
 20 
23.495
 40 
0.508
 0 
CIRCLE
 8 
0
 62 
 7 
 10 
22.225
 20 
26.035
 40 
0.965
 0 
CIRCLE
 8 
0
 62 
 7 
 10 
22.225
 20 
26.035
 40 
0.508
 0 
CIRCLE
 8 
0
 62 
 7 
 10 
22.225
 20 
28.575
 40 
0.965
 0 
CIRCLE
 8 
0
 62 
 7 
 10 
22.225
 20 
28.575
 40 
0.508
 0 
CIRCLE
 8 
0
 62 
 7 
 10 
22.225
 20 
31.115
 40 
0.965
 0 
CIRCLE
 8 
0
 62 
 7 
 10 
22.225
 20 
31.115
 40 
0.508
 0 
CIRCLE
 8 
0
 62 
 7 
 10 
22.225
 20 
33.655
 40 
0.965
 0 
CIRCLE
 8 
0
 62 
 7 
 10 
22.225
 20 
33.655
 40 
0.508
 0 
CIRCLE
 8 
0
 62 
 7 
 10 
22.225
 20 
36.195
 40 
0.965
 0 
CIRCLE
 8 
0
 62 
 7 
 10 
22.225
 20 
36.195
 40 
0.508
 0 
CIRCLE
 8 
0
 62 
 7 
 10 
22.225
 20 
38.735
 40 
0.965
 0 
CIRCLE
 8 
0
 62 
 7 
 10 
22.225
 20 
38.735
 40 
0.508
 0 
CIRCLE
 8 
0
 62 
 7 
 10 
22.225
 20 
41.275
 40 
0.965
 0 
CIRCLE
 8 
0
 62 
 7 
 10 
22.225
 20 
41.275
 40 
0.508
 0 
LINE
 8 
0
 62 
 7 
 10 
11.43
 20 
25.4
 11 
12.954
 21 
25.4
 0 
LINE
 8 
0
 62 
 7 
 10 
12.954
 20 
25.4
 11 
12.954
 21 
26.416
 0 
LINE
 8 
0
 62 
 7 
 10 
11.43
 20 
26.924
 11 
11.43
 21 
27.94
 0 
LINE
 8 
0
 62 
 7 
 10 
11.43
 20 
27.432
 11 
12.954
 21 
27.432
 0 
LINE
 8 
0
 62 
 7 
 10 
11.43
 20 
29.464
 11 
11.43
 21 
28.448
 0 
LINE
 8 
0
 62 
 7 
 10 
11.43
 20 
28.448
 11 
12.954
 21 
28.448
 0 
LINE
 8 
0
 62 
 7 
 10 
12.954
 20 
28.448
 11 
12.954
 21 
29.464
 0 
LINE
 8 
0
 62 
 7 
 10 
12.192
 20 
28.448
 11 
12.192
 21 
29.21
 0 
LINE
 8 
0
 62 
 7 
 10 
12.954
 20 
31.496
 11 
11.43
 21 
31.496
 0 
LINE
 8 
0
 62 
 7 
 10 
11.43
 20 
31.496
 11 
11.938
 21 
32.004
 0 
LINE
 8 
0
 62 
 7 
 10 
11.938
 20 
32.004
 11 
12.192
 21 
32.004
 0 
LINE
 8 
0
 62 
 7 
 10 
11.938
 20 
32.004
 11 
11.43
 21 
32.512
 0 
LINE
 8 
0
 62 
 7 
 10 
11.43
 20 
32.512
 11 
12.954
 21 
32.512
 0 
LINE
 8 
0
 62 
 7 
 10 
12.192
 20 
34.036
 11 
11.938
 21 
33.782
 0 
LINE
 8 
0
 62 
 7 
 10 
11.938
 20 
33.782
 11 
11.938
 21 
33.274
 0 
LINE
 8 
0
 62 
 7 
 10 
11.938
 20 
33.274
 11 
12.192
 21 
33.02
 0 
LINE
 8 
0
 62 
 7 
 10 
12.192
 20 
33.02
 11 
12.7
 21 
33.02
 0 
LINE
 8 
0
 62 
 7 
 10 
12.7
 20 
33.02
 11 
12.954
 21 
33.274
 0 
LINE
 8 
0
 62 
 7 
 10 
12.954
 20 
33.274
 11 
12.954
 21 
33.782
 0 
LINE
 8 
0
 62 
 7 
 10 
12.954
 20 
33.782
 11 
12.7
 21 
34.036
 0 
LINE
 8 
0
 62 
 7 
 10 
12.7
 20 
34.036
 11 
12.192
 21 
34.036
 0 
LINE
 8 
0
 62 
 7 
 10 
11.43
 20 
35.306
 11 
11.43
 21 
35.56
 0 
LINE
 8 
0
 62 
 7 
 10 
11.43
 20 
35.56
 11 
12.954
 21 
35.56
 0 
LINE
 8 
0
 62 
 7 
 10 
12.192
 20 
35.56
 11 
11.938
 21 
35.306
 0 
LINE
 8 
0
 62 
 7 
 10 
11.938
 20 
35.306
 11 
11.938
 21 
34.798
 0 
LINE
 8 
0
 62 
 7 
 10 
11.938
 20 
34.798
 11 
12.192
 21 
34.544
 0 
LINE
 8 
0
 62 
 7 
 10 
12.192
 20 
34.544
 11 
12.7
 21 
34.544
 0 
LINE
 8 
0
 62 
 7 
 10 
12.7
 20 
34.544
 11 
12.954
 21 
34.798
 0 
LINE
 8 
0
 62 
 7 
 10 
12.954
 20 
34.798
 11 
12.954
 21 
35.052
 0 
LINE
 8 
0
 62 
 7 
 10 
12.954
 20 
35.052
 11 
12.446
 21 
35.56
 0 
LINE
 8 
0
 62 
 7 
 10 
11.938
 20 
36.068
 11 
12.7
 21 
36.068
 0 
LINE
 8 
0
 62 
 7 
 10 
12.7
 20 
36.068
 11 
12.954
 21 
36.322
 0 
LINE
 8 
0
 62 
 7 
 10 
12.954
 20 
36.322
 11 
12.954
 21 
36.576
 0 
LINE
 8 
0
 62 
 7 
 10 
12.954
 20 
36.576
 11 
12.446
 21 
37.084
 0 
LINE
 8 
0
 62 
 7 
 10 
11.938
 20 
37.084
 11 
12.954
 21 
37.084
 0 
LINE
 8 
0
 62 
 7 
 10 
11.43
 20 
37.846
 11 
11.43
 21 
38.1
 0 
LINE
 8 
0
 62 
 7 
 10 
11.43
 20 
38.1
 11 
12.954
 21 
38.1
 0 
LINE
 8 
0
 62 
 7 
 10 
12.954
 20 
37.846
 11 
12.954
 21 
38.354
 0 
LINE
 8 
0
 62 
 7 
 10 
12.446
 20 
39.116
 11 
12.446
 21 
40.132
 0 
LINE
 8 
0
 62 
 7 
 10 
12.446
 20 
40.132
 11 
12.192
 21 
40.132
 0 
LINE
 8 
0
 62 
 7 
 10 
12.192
 20 
40.132
 11 
11.938
 21 
39.878
 0 
LINE
 8 
0
 62 
 7 
 10 
11.938
 20 
39.878
 11 
11.938
 21 
39.37
 0 
LINE
 8 
0
 62 
 7 
 10 
11.938
 20 
39.37
 11 
12.192
 21 
39.116
 0 
LINE
 8 
0
 62 
 7 
 10 
12.192
 20 
39.116
 11 
12.7
 21 
39.116
 0 
LINE
 8 
0
 62 
 7 
 10 
12.7
 20 
39.116
 11 
12.954
 21 
39.37
 0 
LINE
 8 
0
 62 
 7 
 10 
12.954
 20 
39.37
 11 
12.954
 21 
39.878
 0 
LINE
 8 
0
 62 
 7 
 10 
43.993
 20 
34.925
 11 
43.993
 21 
33.858
 0 
LINE
 8 
0
 62 
 7 
 10 
43.993
 20 
33.858
 11 
44.196
 21 
33.655
 0 
LINE
 8 
0
 62 
 7 
 10 
44.196
 20 
33.655
 11 
44.628
 21 
33.655
 0 
LINE
 8 
0
 62 
 7 
 10 
44.628
 20 
33.655
 11 
44.831
 21 
33.858
 0 
LINE
 8 
0
 62 
 7 
 10 
44.831
 20 
33.858
 11 
44.831
 21 
34.925
 0 
LINE
 8 
0
 62 
 7 
 10 
45.466
 20 
34.722
 11 
45.695
 21 
34.925
 0 
LINE
 8 
0
 62 
 7 
 10 
45.695
 20 
34.925
 11 
45.695
 21 
33.655
 0 
LINE
 8 
0
 62 
 7 
 10 
45.466
 20 
33.655
 11 
45.898
 21 
33.655
 0 
LINE
 8 
0
 62 
 7 
 10 
27.686
 20 
37.846
 11 
27.686
 21 
39.37
 0 
LINE
 8 
0
 62 
 7 
 10 
27.686
 20 
39.37
 11 
28.194
 21 
38.862
 0 
LINE
 8 
0
 62 
 7 
 10 
28.194
 20 
38.862
 11 
28.194
 21 
38.608
 0 
LINE
 8 
0
 62 
 7 
 10 
28.194
 20 
38.862
 11 
28.702
 21 
39.37
 0 
LINE
 8 
0
 62 
 7 
 10 
28.702
 20 
39.37
 11 
28.702
 21 
37.846
 0 
LINE
 8 
0
 62 
 7 
 10 
29.718
 20 
39.37
 11 
29.718
 21 
39.116
 0 
LINE
 8 
0
 62 
 7 
 10 
29.464
 20 
37.846
 11 
29.972
 21 
37.846
 0 
LINE
 8 
0
 62 
 7 
 10 
29.464
 20 
38.608
 11 
29.718
 21 
38.608
 0 
LINE
 8 
0
 62 
 7 
 10 
29.718
 20 
38.608
 11 
29.718
 21 
37.846
 0 
LINE
 8 
0
 62 
 7 
 10 
31.75
 20 
38.608
 11 
31.496
 21 
38.862
 0 
LINE
 8 
0
 62 
 7 
 10 
31.496
 20 
38.862
 11 
30.988
 21 
38.862
 0 
LINE
 8 
0
 62 
 7 
 10 
30.988
 20 
38.862
 11 
30.734
 21 
38.608
 0 
LINE
 8 
0
 62 
 7 
 10 
30.734
 20 
38.608
 11 
30.734
 21 
38.1
 0 
LINE
 8 
0
 62 
 7 
 10 
30.734
 20 
38.1
 11 
30.988
 21 
37.846
 0 
LINE
 8 
0
 62 
 7 
 10 
30.988
 20 
37.846
 11 
31.496
 21 
37.846
 0 
LINE
 8 
0
 62 
 7 
 10 
31.496
 20 
37.846
 11 
31.75
 21 
38.1
 0 
LINE
 8 
0
 62 
 7 
 10 
32.258
 20 
38.862
 11 
32.258
 21 
37.846
 0 
LINE
 8 
0
 62 
 7 
 10 
32.258
 20 
38.354
 11 
32.766
 21 
38.862
 0 
LINE
 8 
0
 62 
 7 
 10 
32.766
 20 
38.862
 11 
33.02
 21 
38.862
 0 
LINE
 8 
0
 62 
 7 
 10 
33.02
 20 
38.862
 11 
33.274
 21 
38.608
 0 
LINE
 8 
0
 62 
 7 
 10 
34.798
 20 
38.608
 11 
34.544
 21 
38.862
 0 
LINE
 8 
0
 62 
 7 
 10 
34.544
 20 
38.862
 11 
34.036
 21 
38.862
 0 
LINE
 8 
0
 62 
 7 
 10 
34.036
 20 
38.862
 11 
33.782
 21 
38.608
 0 
LINE
 8 
0
 62 
 7 
 10 
33.782
 20 
38.608
 11 
33.782
 21 
38.1
 0 
LINE
 8 
0
 62 
 7 
 10 
33.782
 20 
38.1
 11 
34.036
 21 
37.846
 0 
LINE
 8 
0
 62 
 7 
 10 
34.036
 20 
37.846
 11 
34.544
 21 
37.846
 0 
LINE
 8 
0
 62 
 7 
 10 
34.544
 20 
37.846
 11 
34.798
 21 
38.1
 0 
LINE
 8 
0
 62 
 7 
 10 
34.798
 20 
38.1
 11 
34.798
 21 
38.608
 0 
LINE
 8 
0
 62 
 7 
 10 
37.846
 20 
39.116
 11 
37.592
 21 
39.37
 0 
LINE
 8 
0
 62 
 7 
 10 
37.592
 20 
39.37
 11 
37.084
 21 
39.37
 0 
LINE
 8 
0
 62 
 7 
 10 
37.084
 20 
39.37
 11 
36.83
 21 
39.116
 0 
LINE
 8 
0
 62 
 7 
 10 
36.83
 20 
39.116
 11 
36.83
 21 
38.862
 0 
LINE
 8 
0
 62 
 7 
 10 
36.83
 20 
38.862
 11 
37.084
 21 
38.608
 0 
LINE
 8 
0
 62 
 7 
 10 
37.084
 20 
38.608
 11 
37.592
 21 
38.608
 0 
LINE
 8 
0
 62 
 7 
 10 
37.592
 20 
38.608
 11 
37.846
 21 
38.354
 0 
LINE
 8 
0
 62 
 7 
 10 
37.846
 20 
38.354
 11 
37.846
 21 
38.1
 0 
LINE
 8 
0
 62 
 7 
 10 
37.846
 20 
38.1
 11 
37.592
 21 
37.846
 0 
LINE
 8 
0
 62 
 7 
 10 
37.592
 20 
37.846
 11 
37.084
 21 
37.846
 0 
LINE
 8 
0
 62 
 7 
 10 
37.084
 20 
37.846
 11 
36.83
 21 
38.1
 0 
LINE
 8 
0
 62 
 7 
 10 
38.354
 20 
39.37
 11 
39.116
 21 
39.37
 0 
LINE
 8 
0
 62 
 7 
 10 
39.116
 20 
39.37
 11 
39.37
 21 
39.116
 0 
LINE
 8 
0
 62 
 7 
 10 
39.37
 20 
39.116
 11 
39.37
 21 
38.1
 0 
LINE
 8 
0
 62 
 7 
 10 
39.37
 20 
38.1
 11 
39.116
 21 
37.846
 0 
LINE
 8 
0
 62 
 7 
 10 
39.116
 20 
37.846
 11 
38.354
 21 
37.846
 0 
LINE
 8 
0
 62 
 7 
 10 
38.608
 20 
39.37
 11 
38.608
 21 
37.846
 0 
LINE
 8 
0
 62 
 7 
 10 
23.647
 20 
33.02
 11 
23.647
 21 
31.953
 0 
LINE
 8 
0
 62 
 7 
 10 
23.647
 20 
31.953
 11 
23.851
 21 
31.75
 0 
LINE
 8 
0
 62 
 7 
 10 
23.851
 20 
31.75
 11 
24.282
 21 
31.75
 0 
LINE
 8 
0
 62 
 7 
 10 
24.282
 20 
31.75
 11 
24.486
 21 
31.953
 0 
LINE
 8 
0
 62 
 7 
 10 
24.486
 20 
31.953
 11 
24.486
 21 
33.02
 0 
LINE
 8 
0
 62 
 7 
 10 
24.917
 20 
32.817
 11 
25.121
 21 
33.02
 0 
LINE
 8 
0
 62 
 7 
 10 
25.121
 20 
33.02
 11 
25.552
 21 
33.02
 0 
LINE
 8 
0
 62 
 7 
 10 
25.552
 20 
33.02
 11 
25.756
 21 
32.817
 0 
LINE
 8 
0
 62 
 7 
 10 
25.756
 20 
32.817
 11 
25.756
 21 
32.588
 0 
LINE
 8 
0
 62 
 7 
 10 
25.756
 20 
32.588
 11 
25.552
 21 
32.385
 0 
LINE
 8 
0
 62 
 7 
 10 
25.552
 20 
32.385
 11 
25.121
 21 
32.385
 0 
LINE
 8 
0
 62 
 7 
 10 
25.121
 20 
32.385
 11 
24.917
 21 
32.182
 0 
LINE
 8 
0
 62 
 7 
 10 
24.917
 20 
32.182
 11 
24.917
 21 
31.75
 0 
LINE
 8 
0
 62 
 7 
 10 
24.917
 20 
31.75
 11 
25.756
 21 
31.75
 0 
LINE
 8 
0
 62 
 7 
 10 
28.321
 20 
10.541
 11 
28.321
 21 
12.065
 0 
LINE
 8 
0
 62 
 7 
 10 
28.321
 20 
12.065
 11 
29.083
 21 
12.065
 0 
LINE
 8 
0
 62 
 7 
 10 
29.083
 20 
12.065
 11 
29.337
 21 
11.811
 0 
LINE
 8 
0
 62 
 7 
 10 
29.337
 20 
11.811
 11 
29.337
 21 
11.557
 0 
LINE
 8 
0
 62 
 7 
 10 
29.337
 20 
11.557
 11 
29.083
 21 
11.303
 0 
LINE
 8 
0
 62 
 7 
 10 
29.083
 20 
11.303
 11 
28.321
 21 
11.303
 0 
LINE
 8 
0
 62 
 7 
 10 
28.575
 20 
11.303
 11 
29.337
 21 
10.541
 0 
LINE
 8 
0
 62 
 7 
 10 
29.845
 20 
12.065
 11 
30.861
 21 
12.065
 0 
LINE
 8 
0
 62 
 7 
 10 
30.353
 20 
12.065
 11 
30.353
 21 
10.541
 0 
LINE
 8 
0
 62 
 7 
 10 
32.385
 20 
11.811
 11 
32.131
 21 
12.065
 0 
LINE
 8 
0
 62 
 7 
 10 
32.131
 20 
12.065
 11 
31.623
 21 
12.065
 0 
LINE
 8 
0
 62 
 7 
 10 
31.623
 20 
12.065
 11 
31.369
 21 
11.811
 0 
LINE
 8 
0
 62 
 7 
 10 
31.369
 20 
11.811
 11 
31.369
 21 
10.795
 0 
LINE
 8 
0
 62 
 7 
 10 
31.369
 20 
10.795
 11 
31.623
 21 
10.541
 0 
LINE
 8 
0
 62 
 7 
 10 
31.623
 20 
10.541
 11 
32.131
 21 
10.541
 0 
LINE
 8 
0
 62 
 7 
 10 
32.131
 20 
10.541
 11 
32.385
 21 
10.795
 0 
LINE
 8 
0
 62 
 7 
 10 
18.415
 20 
36.195
 11 
18.415
 21 
35.128
 0 
LINE
 8 
0
 62 
 7 
 10 
18.415
 20 
35.128
 11 
18.618
 21 
34.925
 0 
LINE
 8 
0
 62 
 7 
 10 
18.618
 20 
34.925
 11 
19.05
 21 
34.925
 0 
LINE
 8 
0
 62 
 7 
 10 
19.05
 20 
34.925
 11 
19.253
 21 
35.128
 0 
LINE
 8 
0
 62 
 7 
 10 
19.253
 20 
35.128
 11 
19.253
 21 
36.195
 0 
LINE
 8 
0
 62 
 7 
 10 
19.685
 20 
35.992
 11 
19.888
 21 
36.195
 0 
LINE
 8 
0
 62 
 7 
 10 
19.888
 20 
36.195
 11 
20.32
 21 
36.195
 0 
LINE
 8 
0
 62 
 7 
 10 
20.32
 20 
36.195
 11 
20.523
 21 
35.992
 0 
LINE
 8 
0
 62 
 7 
 10 
20.523
 20 
35.992
 11 
20.523
 21 
35.763
 0 
LINE
 8 
0
 62 
 7 
 10 
20.523
 20 
35.763
 11 
20.32
 21 
35.56
 0 
LINE
 8 
0
 62 
 7 
 10 
20.32
 20 
35.56
 11 
20.117
 21 
35.56
 0 
LINE
 8 
0
 62 
 7 
 10 
20.32
 20 
35.56
 11 
20.523
 21 
35.357
 0 
LINE
 8 
0
 62 
 7 
 10 
20.523
 20 
35.357
 11 
20.523
 21 
35.128
 0 
LINE
 8 
0
 62 
 7 
 10 
20.523
 20 
35.128
 11 
20.32
 21 
34.925
 0 
LINE
 8 
0
 62 
 7 
 10 
20.32
 20 
34.925
 11 
19.888
 21 
34.925
 0 
LINE
 8 
0
 62 
 7 
 10 
19.888
 20 
34.925
 11 
19.685
 21 
35.128
 0 
LINE
 8 
0
 62 
 7 
 10 
42.545
 20 
8.255
 11 
42.545
 21 
7.188
 0 
LINE
 8 
0
 62 
 7 
 10 
42.545
 20 
7.188
 11 
42.748
 21 
6.985
 0 
LINE
 8 
0
 62 
 7 
 10 
42.748
 20 
6.985
 11 
43.18
 21 
6.985
 0 
LINE
 8 
0
 62 
 7 
 10 
43.18
 20 
6.985
 11 
43.383
 21 
7.188
 0 
LINE
 8 
0
 62 
 7 
 10 
43.383
 20 
7.188
 11 
43.383
 21 
8.255
 0 
LINE
 8 
0
 62 
 7 
 10 
44.653
 20 
7.417
 11 
43.815
 21 
7.417
 0 
LINE
 8 
0
 62 
 7 
 10 
43.815
 20 
7.417
 11 
43.815
 21 
7.62
 0 
LINE
 8 
0
 62 
 7 
 10 
43.815
 20 
7.62
 11 
44.45
 21 
8.255
 0 
LINE
 8 
0
 62 
 7 
 10 
44.45
 20 
8.255
 11 
44.45
 21 
6.985
 0 
LINE
 8 
0
 62 
 7 
 10 
7.62
 20 
40.005
 11 
8.509
 21 
40.005
 0 
LINE
 8 
0
 62 
 7 
 10 
8.509
 20 
40.005
 11 
9.093
 21 
40.589
 0 
LINE
 8 
0
 62 
 7 
 10 
9.093
 20 
40.589
 11 
8.509
 21 
41.199
 0 
LINE
 8 
0
 62 
 7 
 10 
8.509
 20 
41.199
 11 
7.62
 21 
41.199
 0 
LINE
 8 
0
 62 
 7 
 10 
9.093
 20 
40.589
 11 
9.398
 21 
40.589
 0 
LINE
 8 
0
 62 
 7 
 10 
8.814
 20 
41.783
 11 
8.814
 21 
42.977
 0 
LINE
 8 
0
 62 
 7 
 10 
8.814
 20 
42.977
 11 
8.509
 21 
42.977
 0 
LINE
 8 
0
 62 
 7 
 10 
8.509
 20 
42.977
 11 
8.204
 21 
42.672
 0 
LINE
 8 
0
 62 
 7 
 10 
8.204
 20 
42.672
 11 
8.204
 21 
42.088
 0 
LINE
 8 
0
 62 
 7 
 10 
8.204
 20 
42.088
 11 
8.509
 21 
41.783
 0 
LINE
 8 
0
 62 
 7 
 10 
8.509
 20 
41.783
 11 
9.093
 21 
41.783
 0 
LINE
 8 
0
 62 
 7 
 10 
9.093
 20 
41.783
 11 
9.398
 21 
42.088
 0 
LINE
 8 
0
 62 
 7 
 10 
9.398
 20 
42.088
 11 
9.398
 21 
42.672
 0 
LINE
 8 
0
 62 
 7 
 10 
8.204
 20 
43.561
 11 
9.398
 21 
43.561
 0 
LINE
 8 
0
 62 
 7 
 10 
8.814
 20 
43.561
 11 
8.204
 21 
44.145
 0 
LINE
 8 
0
 62 
 7 
 10 
8.204
 20 
44.145
 11 
8.204
 21 
44.45
 0 
LINE
 8 
0
 62 
 7 
 10 
8.204
 20 
44.45
 11 
8.509
 21 
44.755
 0 
LINE
 8 
0
 62 
 7 
 10 
8.204
 20 
46.533
 11 
8.204
 21 
45.644
 0 
LINE
 8 
0
 62 
 7 
 10 
8.204
 20 
45.644
 11 
8.509
 21 
45.339
 0 
LINE
 8 
0
 62 
 7 
 10 
8.509
 20 
45.339
 11 
8.814
 21 
45.644
 0 
LINE
 8 
0
 62 
 7 
 10 
8.814
 20 
45.644
 11 
8.814
 21 
46.228
 0 
LINE
 8 
0
 62 
 7 
 10 
8.814
 20 
46.228
 11 
9.093
 21 
46.533
 0 
LINE
 8 
0
 62 
 7 
 10 
9.093
 20 
46.533
 11 
9.398
 21 
46.228
 0 
LINE
 8 
0
 62 
 7 
 10 
9.398
 20 
46.228
 11 
9.398
 21 
45.339
 0 
LINE
 8 
0
 62 
 7 
 10 
7.62
 20 
47.701
 11 
7.925
 21 
47.701
 0 
LINE
 8 
0
 62 
 7 
 10 
9.398
 20 
47.422
 11 
9.398
 21 
48.006
 0 
LINE
 8 
0
 62 
 7 
 10 
8.509
 20 
47.422
 11 
8.509
 21 
47.701
 0 
LINE
 8 
0
 62 
 7 
 10 
8.509
 20 
47.701
 11 
9.398
 21 
47.701
 0 
LINE
 8 
0
 62 
 7 
 10 
8.509
 20 
50.089
 11 
8.204
 21 
49.784
 0 
LINE
 8 
0
 62 
 7 
 10 
8.204
 20 
49.784
 11 
8.204
 21 
49.2
 0 
LINE
 8 
0
 62 
 7 
 10 
8.204
 20 
49.2
 11 
8.509
 21 
48.895
 0 
LINE
 8 
0
 62 
 7 
 10 
8.509
 20 
48.895
 11 
9.093
 21 
48.895
 0 
LINE
 8 
0
 62 
 7 
 10 
9.093
 20 
48.895
 11 
9.398
 21 
49.2
 0 
LINE
 8 
0
 62 
 7 
 10 
9.398
 20 
49.2
 11 
9.398
 21 
49.784
 0 
LINE
 8 
0
 62 
 7 
 10 
9.398
 20 
49.784
 11 
9.093
 21 
50.089
 0 
LINE
 8 
0
 62 
 7 
 10 
9.093
 20 
50.089
 11 
8.509
 21 
50.089
 0 
LINE
 8 
0
 62 
 7 
 10 
8.204
 20 
50.673
 11 
9.398
 21 
50.673
 0 
LINE
 8 
0
 62 
 7 
 10 
8.814
 20 
50.673
 11 
8.204
 21 
51.257
 0 
LINE
 8 
0
 62 
 7 
 10 
8.204
 20 
51.257
 11 
8.204
 21 
51.562
 0 
LINE
 8 
0
 62 
 7 
 10 
8.204
 20 
51.562
 11 
8.509
 21 
51.867
 0 
LINE
 8 
0
 62 
 7 
 10 
8.509
 20 
51.867
 11 
9.398
 21 
51.867
 0 
LINE
 8 
0
 62 
 7 
 10 
7.925
 20 
54.229
 11 
7.62
 21 
54.534
 0 
LINE
 8 
0
 62 
 7 
 10 
7.62
 20 
54.534
 11 
7.62
 21 
55.118
 0 
LINE
 8 
0
 62 
 7 
 10 
7.62
 20 
55.118
 11 
7.925
 21 
55.423
 0 
LINE
 8 
0
 62 
 7 
 10 
7.925
 20 
55.423
 11 
8.204
 21 
55.423
 0 
LINE
 8 
0
 62 
 7 
 10 
8.204
 20 
55.423
 11 
8.509
 21 
55.118
 0 
LINE
 8 
0
 62 
 7 
 10 
8.509
 20 
55.118
 11 
8.509
 21 
54.534
 0 
LINE
 8 
0
 62 
 7 
 10 
8.509
 20 
54.534
 11 
8.814
 21 
54.229
 0 
LINE
 8 
0
 62 
 7 
 10 
8.814
 20 
54.229
 11 
9.398
 21 
54.229
 0 
LINE
 8 
0
 62 
 7 
 10 
9.398
 20 
54.229
 11 
9.398
 21 
55.423
 0 
CIRCLE
 8 
0
 62 
 7 
 10 
5.08
 20 
19.685
 40 
0.965
 0 
CIRCLE
 8 
0
 62 
 7 
 10 
5.08
 20 
19.685
 40 
0.508
 0 
CIRCLE
 8 
0
 62 
 7 
 10 
3.81
 20 
59.69
 40 
2.54
 0 
CIRCLE
 8 
0
 62 
 7 
 10 
3.81
 20 
59.69
 40 
1.905
 0 
LINE
 8 
0
 62 
 7 
 10 
37.821
 20 
62.865
 11 
38.456
 21 
62.865
 0 
LINE
 8 
0
 62 
 7 
 10 
38.456
 20 
62.865
 11 
38.456
 21 
61.798
 0 
LINE
 8 
0
 62 
 7 
 10 
38.456
 20 
61.798
 11 
38.252
 21 
61.595
 0 
LINE
 8 
0
 62 
 7 
 10 
38.252
 20 
61.595
 11 
37.821
 21 
61.595
 0 
LINE
 8 
0
 62 
 7 
 10 
37.821
 20 
61.595
 11 
37.617
 21 
61.798
 0 
LINE
 8 
0
 62 
 7 
 10 
39.091
 20 
62.662
 11 
39.319
 21 
62.865
 0 
LINE
 8 
0
 62 
 7 
 10 
39.319
 20 
62.865
 11 
39.319
 21 
61.595
 0 
LINE
 8 
0
 62 
 7 
 10 
39.091
 20 
61.595
 11 
39.522
 21 
61.595
 0 
CIRCLE
 8 
0
 62 
 7 
 10 
27.94
 20 
61.595
 40 
0.965
 0 
CIRCLE
 8 
0
 62 
 7 
 10 
27.94
 20 
61.595
 40 
0.508
 0 
CIRCLE
 8 
0
 62 
 7 
 10 
25.4
 20 
61.595
 40 
0.965
 0 
CIRCLE
 8 
0
 62 
 7 
 10 
25.4
 20 
61.595
 40 
0.508
 0 
CIRCLE
 8 
0
 62 
 7 
 10 
22.86
 20 
61.595
 40 
0.965
 0 
CIRCLE
 8 
0
 62 
 7 
 10 
22.86
 20 
61.595
 40 
0.508
 0 
LINE
 8 
0
 62 
 7 
 10 
21.59
 20 
62.865
 11 
29.21
 21 
62.865
 0 
LINE
 8 
0
 62 
 7 
 10 
21.59
 20 
62.865
 11 
21.59
 21 
60.325
 0 
LINE
 8 
0
 62 
 7 
 10 
21.59
 20 
60.325
 11 
29.21
 21 
60.325
 0 
LINE
 8 
0
 62 
 7 
 10 
29.21
 20 
60.325
 11 
29.21
 21 
62.865
 0 
CIRCLE
 8 
0
 62 
 7 
 10 
5.08
 20 
22.225
 40 
0.965
 0 
CIRCLE
 8 
0
 62 
 7 
 10 
5.08
 20 
22.225
 40 
0.508
 0 
LINE
 8 
0
 62 
 7 
 10 
18.136
 20 
62.865
 11 
18.771
 21 
62.865
 0 
LINE
 8 
0
 62 
 7 
 10 
18.771
 20 
62.865
 11 
18.771
 21 
61.798
 0 
LINE
 8 
0
 62 
 7 
 10 
18.771
 20 
61.798
 11 
18.567
 21 
61.595
 0 
LINE
 8 
0
 62 
 7 
 10 
18.567
 20 
61.595
 11 
18.136
 21 
61.595
 0 
LINE
 8 
0
 62 
 7 
 10 
18.136
 20 
61.595
 11 
17.932
 21 
61.798
 0 
LINE
 8 
0
 62 
 7 
 10 
19.202
 20 
62.662
 11 
19.406
 21 
62.865
 0 
LINE
 8 
0
 62 
 7 
 10 
19.406
 20 
62.865
 11 
19.837
 21 
62.865
 0 
LINE
 8 
0
 62 
 7 
 10 
19.837
 20 
62.865
 11 
20.041
 21 
62.662
 0 
LINE
 8 
0
 62 
 7 
 10 
20.041
 20 
62.662
 11 
20.041
 21 
62.433
 0 
LINE
 8 
0
 62 
 7 
 10 
20.041
 20 
62.433
 11 
19.837
 21 
62.23
 0 
LINE
 8 
0
 62 
 7 
 10 
19.837
 20 
62.23
 11 
19.634
 21 
62.23
 0 
LINE
 8 
0
 62 
 7 
 10 
19.837
 20 
62.23
 11 
20.041
 21 
62.027
 0 
LINE
 8 
0
 62 
 7 
 10 
20.041
 20 
62.027
 11 
20.041
 21 
61.798
 0 
LINE
 8 
0
 62 
 7 
 10 
20.041
 20 
61.798
 11 
19.837
 21 
61.595
 0 
LINE
 8 
0
 62 
 7 
 10 
19.837
 20 
61.595
 11 
19.406
 21 
61.595
 0 
LINE
 8 
0
 62 
 7 
 10 
19.406
 20 
61.595
 11 
19.202
 21 
61.798
 0 
LINE
 8 
0
 62 
 7 
 10 
29.566
 20 
62.865
 11 
30.201
 21 
62.865
 0 
LINE
 8 
0
 62 
 7 
 10 
30.201
 20 
62.865
 11 
30.201
 21 
61.798
 0 
LINE
 8 
0
 62 
 7 
 10 
30.201
 20 
61.798
 11 
29.997
 21 
61.595
 0 
LINE
 8 
0
 62 
 7 
 10 
29.997
 20 
61.595
 11 
29.566
 21 
61.595
 0 
LINE
 8 
0
 62 
 7 
 10 
29.566
 20 
61.595
 11 
29.362
 21 
61.798
 0 
LINE
 8 
0
 62 
 7 
 10 
30.632
 20 
62.662
 11 
30.836
 21 
62.865
 0 
LINE
 8 
0
 62 
 7 
 10 
30.836
 20 
62.865
 11 
31.267
 21 
62.865
 0 
LINE
 8 
0
 62 
 7 
 10 
31.267
 20 
62.865
 11 
31.471
 21 
62.662
 0 
LINE
 8 
0
 62 
 7 
 10 
31.471
 20 
62.662
 11 
31.471
 21 
62.433
 0 
LINE
 8 
0
 62 
 7 
 10 
31.471
 20 
62.433
 11 
31.267
 21 
62.23
 0 
LINE
 8 
0
 62 
 7 
 10 
31.267
 20 
62.23
 11 
30.836
 21 
62.23
 0 
LINE
 8 
0
 62 
 7 
 10 
30.836
 20 
62.23
 11 
30.632
 21 
62.027
 0 
LINE
 8 
0
 62 
 7 
 10 
30.632
 20 
62.027
 11 
30.632
 21 
61.595
 0 
LINE
 8 
0
 62 
 7 
 10 
30.632
 20 
61.595
 11 
31.471
 21 
61.595
 0 
CIRCLE
 8 
0
 62 
 7 
 10 
7.62
 20 
4.445
 40 
0.711
 0 
CIRCLE
 8 
0
 62 
 7 
 10 
7.62
 20 
4.445
 40 
0.356
 0 
CIRCLE
 8 
0
 62 
 7 
 10 
10.16
 20 
4.445
 40 
0.711
 0 
CIRCLE
 8 
0
 62 
 7 
 10 
10.16
 20 
4.445
 40 
0.356
 0 
CIRCLE
 8 
0
 62 
 7 
 10 
12.7
 20 
4.445
 40 
0.711
 0 
CIRCLE
 8 
0
 62 
 7 
 10 
12.7
 20 
4.445
 40 
0.356
 0 
CIRCLE
 8 
0
 62 
 7 
 10 
44.45
 20 
59.69
 40 
2.54
 0 
CIRCLE
 8 
0
 62 
 7 
 10 
44.45
 20 
59.69
 40 
1.905
 0 
LINE
 8 
0
 62 
 7 
 10 
6.452
 20 
5.715
 11 
6.452
 21 
3.302
 0 
LINE
 8 
0
 62 
 7 
 10 
6.452
 20 
3.302
 11 
7.595
 21 
2.159
 0 
LINE
 8 
0
 62 
 7 
 10 
7.595
 20 
2.159
 11 
12.725
 21 
2.159
 0 
LINE
 8 
0
 62 
 7 
 10 
12.725
 20 
2.159
 11 
13.868
 21 
3.302
 0 
LINE
 8 
0
 62 
 7 
 10 
13.868
 20 
3.302
 11 
13.868
 21 
5.715
 0 
LINE
 8 
0
 62 
 7 
 10 
13.868
 20 
5.715
 11 
6.452
 21 
5.715
 0 
LINE
 8 
0
 62 
 7 
 10 
14.046
 20 
5.207
 11 
14.884
 21 
5.207
 0 
LINE
 8 
0
 62 
 7 
 10 
14.478
 20 
5.207
 11 
14.478
 21 
3.937
 0 
LINE
 8 
0
 62 
 7 
 10 
15.316
 20 
5.004
 11 
15.519
 21 
5.207
 0 
LINE
 8 
0
 62 
 7 
 10 
15.519
 20 
5.207
 11 
15.951
 21 
5.207
 0 
LINE
 8 
0
 62 
 7 
 10 
15.951
 20 
5.207
 11 
16.154
 21 
5.004
 0 
LINE
 8 
0
 62 
 7 
 10 
16.154
 20 
5.004
 11 
16.154
 21 
4.775
 0 
LINE
 8 
0
 62 
 7 
 10 
16.154
 20 
4.775
 11 
15.951
 21 
4.572
 0 
LINE
 8 
0
 62 
 7 
 10 
15.951
 20 
4.572
 11 
15.519
 21 
4.572
 0 
LINE
 8 
0
 62 
 7 
 10 
15.519
 20 
4.572
 11 
15.316
 21 
4.369
 0 
LINE
 8 
0
 62 
 7 
 10 
15.316
 20 
4.369
 11 
15.316
 21 
3.937
 0 
LINE
 8 
0
 62 
 7 
 10 
15.316
 20 
3.937
 11 
16.154
 21 
3.937
 0 
CIRCLE
 8 
0
 62 
 7 
 10 
31.115
 20 
57.15
 40 
0.711
 0 
CIRCLE
 8 
0
 62 
 7 
 10 
31.115
 20 
57.15
 40 
0.356
 0 
CIRCLE
 8 
0
 62 
 7 
 10 
33.655
 20 
57.15
 40 
0.711
 0 
CIRCLE
 8 
0
 62 
 7 
 10 
33.655
 20 
57.15
 40 
0.356
 0 
CIRCLE
 8 
0
 62 
 7 
 10 
36.195
 20 
57.15
 40 
0.711
 0 
CIRCLE
 8 
0
 62 
 7 
 10 
36.195
 20 
57.15
 40 
0.356
 0 
LINE
 8 
0
 62 
 7 
 10 
29.947
 20 
58.42
 11 
29.947
 21 
56.007
 0 
LINE
 8 
0
 62 
 7 
 10 
29.947
 20 
56.007
 11 
31.09
 21 
54.864
 0 
LINE
 8 
0
 62 
 7 
 10 
31.09
 20 
54.864
 11 
36.22
 21 
54.864
 0 
LINE
 8 
0
 62 
 7 
 10 
36.22
 20 
54.864
 11 
37.363
 21 
56.007
 0 
LINE
 8 
0
 62 
 7 
 10 
37.363
 20 
56.007
 11 
37.363
 21 
58.42
 0 
LINE
 8 
0
 62 
 7 
 10 
37.363
 20 
58.42
 11 
29.947
 21 
58.42
 0 
LINE
 8 
0
 62 
 7 
 10 
37.541
 20 
57.912
 11 
38.379
 21 
57.912
 0 
LINE
 8 
0
 62 
 7 
 10 
37.973
 20 
57.912
 11 
37.973
 21 
56.642
 0 
LINE
 8 
0
 62 
 7 
 10 
39.014
 20 
57.709
 11 
39.243
 21 
57.912
 0 
LINE
 8 
0
 62 
 7 
 10 
39.243
 20 
57.912
 11 
39.243
 21 
56.642
 0 
LINE
 8 
0
 62 
 7 
 10 
39.014
 20 
56.642
 11 
39.446
 21 
56.642
 0 
CIRCLE
 8 
0
 62 
 7 
 10 
40.005
 20 
55.88
 40 
0.711
 0 
CIRCLE
 8 
0
 62 
 7 
 10 
40.005
 20 
55.88
 40 
0.356
 0 
CIRCLE
 8 
0
 62 
 7 
 10 
46.355
 20 
55.88
 40 
0.711
 0 
CIRCLE
 8 
0
 62 
 7 
 10 
46.355
 20 
55.88
 40 
0.356
 0 
LINE
 8 
0
 62 
 7 
 10 
41.783
 20 
55.118
 11 
41.783
 21 
56.642
 0 
LINE
 8 
0
 62 
 7 
 10 
44.577
 20 
56.642
 11 
41.783
 21 
56.642
 0 
LINE
 8 
0
 62 
 7 
 10 
44.577
 20 
56.642
 11 
44.577
 21 
55.118
 0 
LINE
 8 
0
 62 
 7 
 10 
41.783
 20 
55.118
 11 
44.577
 21 
55.118
 0 
LINE
 8 
0
 62 
 7 
 10 
41.783
 20 
55.88
 11 
41.148
 21 
55.88
 0 
LINE
 8 
0
 62 
 7 
 10 
44.577
 20 
55.88
 11 
45.212
 21 
55.88
 0 
LINE
 8 
0
 62 
 7 
 10 
47.066
 20 
55.88
 11 
47.066
 21 
57.15
 0 
LINE
 8 
0
 62 
 7 
 10 
47.066
 20 
57.15
 11 
47.701
 21 
57.15
 0 
LINE
 8 
0
 62 
 7 
 10 
47.701
 20 
57.15
 11 
47.904
 21 
56.947
 0 
LINE
 8 
0
 62 
 7 
 10 
47.904
 20 
56.947
 11 
47.904
 21 
56.718
 0 
LINE
 8 
0
 62 
 7 
 10 
47.904
 20 
56.718
 11 
47.701
 21 
56.515
 0 
LINE
 8 
0
 62 
 7 
 10 
47.701
 20 
56.515
 11 
47.066
 21 
56.515
 0 
LINE
 8 
0
 62 
 7 
 10 
47.269
 20 
56.515
 11 
47.904
 21 
55.88
 0 
LINE
 8 
0
 62 
 7 
 10 
48.539
 20 
56.947
 11 
48.768
 21 
57.15
 0 
LINE
 8 
0
 62 
 7 
 10 
48.768
 20 
57.15
 11 
48.768
 21 
55.88
 0 
LINE
 8 
0
 62 
 7 
 10 
48.539
 20 
55.88
 11 
48.971
 21 
55.88
 0 
CIRCLE
 8 
0
 62 
 7 
 10 
12.065
 20 
1.27
 40 
0.711
 0 
CIRCLE
 8 
0
 62 
 7 
 10 
12.065
 20 
1.27
 40 
0.356
 0 
CIRCLE
 8 
0
 62 
 7 
 10 
18.415
 20 
1.27
 40 
0.711
 0 
CIRCLE
 8 
0
 62 
 7 
 10 
18.415
 20 
1.27
 40 
0.356
 0 
LINE
 8 
0
 62 
 7 
 10 
13.843
 20 
0.508
 11 
13.843
 21 
2.032
 0 
LINE
 8 
0
 62 
 7 
 10 
16.637
 20 
2.032
 11 
13.843
 21 
2.032
 0 
LINE
 8 
0
 62 
 7 
 10 
16.637
 20 
2.032
 11 
16.637
 21 
0.508
 0 
LINE
 8 
0
 62 
 7 
 10 
13.843
 20 
0.508
 11 
16.637
 21 
0.508
 0 
LINE
 8 
0
 62 
 7 
 10 
13.843
 20 
1.27
 11 
13.208
 21 
1.27
 0 
LINE
 8 
0
 62 
 7 
 10 
16.637
 20 
1.27
 11 
17.272
 21 
1.27
 0 
LINE
 8 
0
 62 
 7 
 10 
19.126
 20 
1.27
 11 
19.126
 21 
2.54
 0 
LINE
 8 
0
 62 
 7 
 10 
19.126
 20 
2.54
 11 
19.761
 21 
2.54
 0 
LINE
 8 
0
 62 
 7 
 10 
19.761
 20 
2.54
 11 
19.964
 21 
2.337
 0 
LINE
 8 
0
 62 
 7 
 10 
19.964
 20 
2.337
 11 
19.964
 21 
2.108
 0 
LINE
 8 
0
 62 
 7 
 10 
19.964
 20 
2.108
 11 
19.761
 21 
1.905
 0 
LINE
 8 
0
 62 
 7 
 10 
19.761
 20 
1.905
 11 
19.126
 21 
1.905
 0 
LINE
 8 
0
 62 
 7 
 10 
19.329
 20 
1.905
 11 
19.964
 21 
1.27
 0 
LINE
 8 
0
 62 
 7 
 10 
20.396
 20 
2.337
 11 
20.599
 21 
2.54
 0 
LINE
 8 
0
 62 
 7 
 10 
20.599
 20 
2.54
 11 
21.031
 21 
2.54
 0 
LINE
 8 
0
 62 
 7 
 10 
21.031
 20 
2.54
 11 
21.234
 21 
2.337
 0 
LINE
 8 
0
 62 
 7 
 10 
21.234
 20 
2.337
 11 
21.234
 21 
2.108
 0 
LINE
 8 
0
 62 
 7 
 10 
21.234
 20 
2.108
 11 
21.031
 21 
1.905
 0 
LINE
 8 
0
 62 
 7 
 10 
21.031
 20 
1.905
 11 
20.599
 21 
1.905
 0 
LINE
 8 
0
 62 
 7 
 10 
20.599
 20 
1.905
 11 
20.396
 21 
1.702
 0 
LINE
 8 
0
 62 
 7 
 10 
20.396
 20 
1.702
 11 
20.396
 21 
1.27
 0 
LINE
 8 
0
 62 
 7 
 10 
20.396
 20 
1.27
 11 
21.234
 21 
1.27
 0 
LINE
 8 
0
 62 
 7 
 10 
31.115
 20 
60.452
 11 
31.801
 21 
60.452
 0 
LINE
 8 
0
 62 
 7 
 10 
32.563
 20 
27.991
 11 
32.385
 21 
27.813
 0 
LINE
 8 
0
 62 
 7 
 10 
32.385
 20 
27.813
 11 
32.385
 21 
27.483
 0 
LINE
 8 
0
 62 
 7 
 10 
32.385
 20 
27.483
 11 
32.563
 21 
27.305
 0 
LINE
 8 
0
 62 
 7 
 10 
32.563
 20 
27.305
 11 
32.715
 21 
27.305
 0 
LINE
 8 
0
 62 
 7 
 10 
32.715
 20 
27.305
 11 
32.893
 21 
27.483
 0 
LINE
 8 
0
 62 
 7 
 10 
32.893
 20 
27.483
 11 
32.893
 21 
27.813
 0 
LINE
 8 
0
 62 
 7 
 10 
32.893
 20 
27.813
 11 
33.071
 21 
27.991
 0 
LINE
 8 
0
 62 
 7 
 10 
33.071
 20 
27.991
 11 
33.223
 21 
27.991
 0 
LINE
 8 
0
 62 
 7 
 10 
33.223
 20 
27.991
 11 
33.401
 21 
27.813
 0 
LINE
 8 
0
 62 
 7 
 10 
33.401
 20 
27.813
 11 
33.401
 21 
27.483
 0 
LINE
 8 
0
 62 
 7 
 10 
33.401
 20 
27.483
 11 
33.223
 21 
27.305
 0 
LINE
 8 
0
 62 
 7 
 10 
32.563
 20 
29.007
 11 
32.385
 21 
28.829
 0 
LINE
 8 
0
 62 
 7 
 10 
32.385
 20 
28.829
 11 
32.385
 21 
28.499
 0 
LINE
 8 
0
 62 
 7 
 10 
32.385
 20 
28.499
 11 
32.563
 21 
28.321
 0 
LINE
 8 
0
 62 
 7 
 10 
32.563
 20 
28.321
 11 
33.223
 21 
28.321
 0 
LINE
 8 
0
 62 
 7 
 10 
33.223
 20 
28.321
 11 
33.401
 21 
28.499
 0 
LINE
 8 
0
 62 
 7 
 10 
33.401
 20 
28.499
 11 
33.401
 21 
28.829
 0 
LINE
 8 
0
 62 
 7 
 10 
33.401
 20 
28.829
 11 
33.223
 21 
29.007
 0 
LINE
 8 
0
 62 
 7 
 10 
32.385
 20 
29.337
 11 
33.401
 21 
29.337
 0 
LINE
 8 
0
 62 
 7 
 10 
33.401
 20 
29.337
 11 
33.401
 21 
30.023
 0 
LINE
 8 
0
 62 
 7 
 10 
32.563
 20 
33.071
 11 
32.385
 21 
32.893
 0 
LINE
 8 
0
 62 
 7 
 10 
32.385
 20 
32.893
 11 
32.385
 21 
32.563
 0 
LINE
 8 
0
 62 
 7 
 10 
32.385
 20 
32.563
 11 
32.563
 21 
32.385
 0 
LINE
 8 
0
 62 
 7 
 10 
32.563
 20 
32.385
 11 
32.715
 21 
32.385
 0 
LINE
 8 
0
 62 
 7 
 10 
32.715
 20 
32.385
 11 
32.893
 21 
32.563
 0 
LINE
 8 
0
 62 
 7 
 10 
32.893
 20 
32.563
 11 
32.893
 21 
32.893
 0 
LINE
 8 
0
 62 
 7 
 10 
32.893
 20 
32.893
 11 
33.071
 21 
33.071
 0 
LINE
 8 
0
 62 
 7 
 10 
33.071
 20 
33.071
 11 
33.223
 21 
33.071
 0 
LINE
 8 
0
 62 
 7 
 10 
33.223
 20 
33.071
 11 
33.401
 21 
32.893
 0 
LINE
 8 
0
 62 
 7 
 10 
33.401
 20 
32.893
 11 
33.401
 21 
32.563
 0 
LINE
 8 
0
 62 
 7 
 10 
33.401
 20 
32.563
 11 
33.223
 21 
32.385
 0 
LINE
 8 
0
 62 
 7 
 10 
32.385
 20 
33.401
 11 
32.385
 21 
33.909
 0 
LINE
 8 
0
 62 
 7 
 10 
32.385
 20 
33.909
 11 
32.563
 21 
34.087
 0 
LINE
 8 
0
 62 
 7 
 10 
32.563
 20 
34.087
 11 
33.223
 21 
34.087
 0 
LINE
 8 
0
 62 
 7 
 10 
33.223
 20 
34.087
 11 
33.401
 21 
33.909
 0 
LINE
 8 
0
 62 
 7 
 10 
33.401
 20 
33.909
 11 
33.401
 21 
33.401
 0 
LINE
 8 
0
 62 
 7 
 10 
32.385
 20 
33.579
 11 
33.401
 21 
33.579
 0 
LINE
 8 
0
 62 
 7 
 10 
33.401
 20 
34.417
 11 
32.715
 21 
34.417
 0 
LINE
 8 
0
 62 
 7 
 10 
32.715
 20 
34.417
 11 
32.385
 21 
34.747
 0 
LINE
 8 
0
 62 
 7 
 10 
32.385
 20 
34.747
 11 
32.715
 21 
35.103
 0 
LINE
 8 
0
 62 
 7 
 10 
32.715
 20 
35.103
 11 
33.401
 21 
35.103
 0 
LINE
 8 
0
 62 
 7 
 10 
33.071
 20 
34.417
 11 
33.071
 21 
35.103
 0 
LINE
 8 
0
 62 
 7 
 10 
38.43
 20 
60.782
 11 
38.43
 21 
60.122
 0 
LINE
 8 
0
 62 
 7 
 10 
38.1
 20 
60.452
 11 
38.786
 21 
60.452
 0 
LINE
 8 
0
 62 
 7 
 10 
39.37
 20 
20.955
 11 
40.056
 21 
20.955
 0 
LINE
 8 
0
 62 
 7 
 10 
39.7
 20 
20.955
 11 
39.7
 21 
19.939
 0 
LINE
 8 
0
 62 
 7 
 10 
40.386
 20 
20.955
 11 
40.386
 21 
20.777
 0 
LINE
 8 
0
 62 
 7 
 10 
40.386
 20 
20.777
 11 
41.072
 21 
20.117
 0 
LINE
 8 
0
 62 
 7 
 10 
41.072
 20 
20.117
 11 
41.072
 21 
19.939
 0 
LINE
 8 
0
 62 
 7 
 10 
41.072
 20 
20.955
 11 
41.072
 21 
20.777
 0 
LINE
 8 
0
 62 
 7 
 10 
41.072
 20 
20.777
 11 
40.386
 21 
20.117
 0 
LINE
 8 
0
 62 
 7 
 10 
40.386
 20 
20.117
 11 
40.386
 21 
19.939
 0 
LINE
 8 
0
 62 
 7 
 10 
39.37
 20 
22.479
 11 
39.37
 21 
23.495
 0 
LINE
 8 
0
 62 
 7 
 10 
39.37
 20 
23.495
 11 
39.878
 21 
23.495
 0 
LINE
 8 
0
 62 
 7 
 10 
39.878
 20 
23.495
 11 
40.056
 21 
23.317
 0 
LINE
 8 
0
 62 
 7 
 10 
40.056
 20 
23.317
 11 
40.056
 21 
23.165
 0 
LINE
 8 
0
 62 
 7 
 10 
40.056
 20 
23.165
 11 
39.878
 21 
22.987
 0 
LINE
 8 
0
 62 
 7 
 10 
39.878
 20 
22.987
 11 
39.37
 21 
22.987
 0 
LINE
 8 
0
 62 
 7 
 10 
39.548
 20 
22.987
 11 
40.056
 21 
22.479
 0 
LINE
 8 
0
 62 
 7 
 10 
40.386
 20 
23.495
 11 
40.386
 21 
23.317
 0 
LINE
 8 
0
 62 
 7 
 10 
40.386
 20 
23.317
 11 
41.072
 21 
22.657
 0 
LINE
 8 
0
 62 
 7 
 10 
41.072
 20 
22.657
 11 
41.072
 21 
22.479
 0 
LINE
 8 
0
 62 
 7 
 10 
41.072
 20 
23.495
 11 
41.072
 21 
23.317
 0 
LINE
 8 
0
 62 
 7 
 10 
41.072
 20 
23.317
 11 
40.386
 21 
22.657
 0 
LINE
 8 
0
 62 
 7 
 10 
40.386
 20 
22.657
 11 
40.386
 21 
22.479
 0 
LINE
 8 
0
 62 
 7 
 10 
29.54
 20 
15.062
 11 
29.54
 21 
14.402
 0 
LINE
 8 
0
 62 
 7 
 10 
29.21
 20 
14.732
 11 
29.896
 21 
14.732
 0 
LINE
 8 
0
 62 
 7 
 10 
30.912
 20 
15.24
 11 
30.226
 21 
15.24
 0 
LINE
 8 
0
 62 
 7 
 10 
30.226
 20 
15.24
 11 
30.226
 21 
14.91
 0 
LINE
 8 
0
 62 
 7 
 10 
30.226
 20 
14.91
 11 
30.734
 21 
14.91
 0 
LINE
 8 
0
 62 
 7 
 10 
30.734
 20 
14.91
 11 
30.912
 21 
14.732
 0 
LINE
 8 
0
 62 
 7 
 10 
30.912
 20 
14.732
 11 
30.912
 21 
14.402
 0 
LINE
 8 
0
 62 
 7 
 10 
30.912
 20 
14.402
 11 
30.734
 21 
14.224
 0 
LINE
 8 
0
 62 
 7 
 10 
30.734
 20 
14.224
 11 
30.404
 21 
14.224
 0 
LINE
 8 
0
 62 
 7 
 10 
30.404
 20 
14.224
 11 
30.226
 21 
14.402
 0 
LINE
 8 
0
 62 
 7 
 10 
31.242
 20 
15.24
 11 
31.242
 21 
14.732
 0 
LINE
 8 
0
 62 
 7 
 10 
31.242
 20 
14.732
 11 
31.572
 21 
14.402
 0 
LINE
 8 
0
 62 
 7 
 10 
31.572
 20 
14.402
 11 
31.928
 21 
14.732
 0 
LINE
 8 
0
 62 
 7 
 10 
31.928
 20 
14.732
 11 
31.928
 21 
15.24
 0 
LINE
 8 
0
 62 
 7 
 10 
31.572
 20 
14.402
 11 
31.572
 21 
14.224
 0 
CIRCLE
 8 
0
 62 
 7 
 10 
44.45
 20 
3.81
 40 
2.54
 0 
CIRCLE
 8 
0
 62 
 7 
 10 
44.45
 20 
3.81
 40 
1.905
 0 
LINE
 8 
0
 62 
 7 
 10 
27.94
 20 
27.305
 11 
28.448
 21 
27.305
 0 
LINE
 8 
0
 62 
 7 
 10 
28.448
 20 
27.305
 11 
28.778
 21 
27.635
 0 
LINE
 8 
0
 62 
 7 
 10 
28.778
 20 
27.635
 11 
28.448
 21 
27.991
 0 
LINE
 8 
0
 62 
 7 
 10 
28.448
 20 
27.991
 11 
27.94
 21 
27.991
 0 
LINE
 8 
0
 62 
 7 
 10 
28.778
 20 
27.635
 11 
28.956
 21 
27.635
 0 
LINE
 8 
0
 62 
 7 
 10 
28.118
 20 
29.007
 11 
27.94
 21 
28.829
 0 
LINE
 8 
0
 62 
 7 
 10 
27.94
 20 
28.829
 11 
27.94
 21 
28.499
 0 
LINE
 8 
0
 62 
 7 
 10 
27.94
 20 
28.499
 11 
28.118
 21 
28.321
 0 
LINE
 8 
0
 62 
 7 
 10 
28.118
 20 
28.321
 11 
28.778
 21 
28.321
 0 
LINE
 8 
0
 62 
 7 
 10 
28.778
 20 
28.321
 11 
28.956
 21 
28.499
 0 
LINE
 8 
0
 62 
 7 
 10 
28.956
 20 
28.499
 11 
28.956
 21 
28.829
 0 
LINE
 8 
0
 62 
 7 
 10 
28.956
 20 
28.829
 11 
28.778
 21 
29.007
 0 
LINE
 8 
0
 62 
 7 
 10 
28.118
 20 
30.023
 11 
27.94
 21 
29.845
 0 
LINE
 8 
0
 62 
 7 
 10 
27.94
 20 
29.845
 11 
27.94
 21 
29.515
 0 
LINE
 8 
0
 62 
 7 
 10 
27.94
 20 
29.515
 11 
28.118
 21 
29.337
 0 
LINE
 8 
0
 62 
 7 
 10 
28.118
 20 
29.337
 11 
28.778
 21 
29.337
 0 
LINE
 8 
0
 62 
 7 
 10 
28.778
 20 
29.337
 11 
28.956
 21 
29.515
 0 
LINE
 8 
0
 62 
 7 
 10 
28.956
 20 
29.515
 11 
28.956
 21 
29.845
 0 
LINE
 8 
0
 62 
 7 
 10 
28.956
 20 
29.845
 11 
28.778
 21 
30.023
 0 
CIRCLE
 8 
0
 62 
 7 
 10 
5.08
 20 
24.765
 40 
0.965
 0 
CIRCLE
 8 
0
 62 
 7 
 10 
5.08
 20 
24.765
 40 
0.508
 0 
CIRCLE
 8 
0
 62 
 7 
 10 
34.29
 20 
5.715
 40 
0.711
 0 
CIRCLE
 8 
0
 62 
 7 
 10 
34.29
 20 
5.715
 40 
0.356
 0 
CIRCLE
 8 
0
 62 
 7 
 10 
3.81
 20 
3.81
 40 
2.54
 0 
CIRCLE
 8 
0
 62 
 7 
 10 
3.81
 20 
3.81
 40 
1.905
 0 
CIRCLE
 8 
0
 62 
 7 
 10 
20.32
 20 
45.72
 40 
0.711
 0 
CIRCLE
 8 
0
 62 
 7 
 10 
20.32
 20 
45.72
 40 
0.356
 0 
CIRCLE
 8 
0
 62 
 7 
 10 
20.32
 20 
5.715
 40 
0.711
 0 
CIRCLE
 8 
0
 62 
 7 
 10 
20.32
 20 
5.715
 40 
0.356
 0 
CIRCLE
 8 
0
 62 
 7 
 10 
24.13
 20 
14.605
 40 
0.711
 0 
CIRCLE
 8 
0
 62 
 7 
 10 
24.13
 20 
14.605
 40 
0.356
 0 
CIRCLE
 8 
0
 62 
 7 
 10 
5.08
 20 
27.305
 40 
0.965
 0 
CIRCLE
 8 
0
 62 
 7 
 10 
5.08
 20 
27.305
 40 
0.508
 0 
CIRCLE
 8 
0
 62 
 7 
 10 
25.4
 20 
13.335
 40 
0.711
 0 
CIRCLE
 8 
0
 62 
 7 
 10 
25.4
 20 
13.335
 40 
0.356
 0 
CIRCLE
 8 
0
 62 
 7 
 10 
46.355
 20 
8.255
 40 
0.711
 0 
CIRCLE
 8 
0
 62 
 7 
 10 
46.355
 20 
8.255
 40 
0.356
 0 
LINE
 8 
0
 62 
 7 
 10 
39.421
 20 
29.032
 11 
39.243
 21 
29.21
 0 
LINE
 8 
0
 62 
 7 
 10 
39.243
 20 
29.21
 11 
38.913
 21 
29.21
 0 
LINE
 8 
0
 62 
 7 
 10 
38.913
 20 
29.21
 11 
38.735
 21 
29.032
 0 
LINE
 8 
0
 62 
 7 
 10 
38.735
 20 
29.032
 11 
38.735
 21 
28.372
 0 
LINE
 8 
0
 62 
 7 
 10 
38.735
 20 
28.372
 11 
38.913
 21 
28.194
 0 
LINE
 8 
0
 62 
 7 
 10 
38.913
 20 
28.194
 11 
39.421
 21 
28.194
 0 
LINE
 8 
0
 62 
 7 
 10 
39.421
 20 
28.194
 11 
39.421
 21 
28.524
 0 
LINE
 8 
0
 62 
 7 
 10 
39.421
 20 
28.524
 11 
39.243
 21 
28.524
 0 
LINE
 8 
0
 62 
 7 
 10 
39.751
 20 
28.194
 11 
39.751
 21 
29.21
 0 
LINE
 8 
0
 62 
 7 
 10 
39.751
 20 
29.21
 11 
40.437
 21 
28.524
 0 
LINE
 8 
0
 62 
 7 
 10 
40.437
 20 
29.21
 11 
40.437
 21 
28.194
 0 
LINE
 8 
0
 62 
 7 
 10 
40.767
 20 
29.21
 11 
41.275
 21 
29.21
 0 
LINE
 8 
0
 62 
 7 
 10 
41.275
 20 
29.21
 11 
41.453
 21 
29.032
 0 
LINE
 8 
0
 62 
 7 
 10 
41.453
 20 
29.032
 11 
41.453
 21 
28.372
 0 
LINE
 8 
0
 62 
 7 
 10 
41.453
 20 
28.372
 11 
41.275
 21 
28.194
 0 
LINE
 8 
0
 62 
 7 
 10 
41.275
 20 
28.194
 11 
40.767
 21 
28.194
 0 
LINE
 8 
0
 62 
 7 
 10 
40.945
 20 
29.21
 11 
40.945
 21 
28.194
 0 
LINE
 8 
0
 62 
 7 
 10 
23.825
 20 
53.035
 11 
25.73
 21 
53.035
 0 
LINE
 8 
0
 62 
 7 
 10 
25.73
 20 
53.035
 11 
25.73
 21 
51.13
 0 
LINE
 8 
0
 62 
 7 
 10 
25.73
 20 
51.13
 11 
23.825
 21 
51.13
 0 
LINE
 8 
0
 62 
 7 
 10 
23.825
 20 
51.13
 11 
23.825
 21 
53.035
 0 
CIRCLE
 8 
0
 62 
 7 
 10 
24.765
 20 
52.07
 40 
0.508
 0 
CIRCLE
 8 
0
 62 
 7 
 10 
27.305
 20 
52.07
 40 
0.965
 0 
CIRCLE
 8 
0
 62 
 7 
 10 
27.305
 20 
52.07
 40 
0.508
 0 
CIRCLE
 8 
0
 62 
 7 
 10 
29.845
 20 
52.07
 40 
0.965
 0 
CIRCLE
 8 
0
 62 
 7 
 10 
29.845
 20 
52.07
 40 
0.508
 0 
CIRCLE
 8 
0
 62 
 7 
 10 
32.385
 20 
52.07
 40 
0.965
 0 
CIRCLE
 8 
0
 62 
 7 
 10 
32.385
 20 
52.07
 40 
0.508
 0 
CIRCLE
 8 
0
 62 
 7 
 10 
34.925
 20 
52.07
 40 
0.965
 0 
CIRCLE
 8 
0
 62 
 7 
 10 
34.925
 20 
52.07
 40 
0.508
 0 
CIRCLE
 8 
0
 62 
 7 
 10 
37.465
 20 
52.07
 40 
0.965
 0 
CIRCLE
 8 
0
 62 
 7 
 10 
37.465
 20 
52.07
 40 
0.508
 0 
CIRCLE
 8 
0
 62 
 7 
 10 
40.005
 20 
52.07
 40 
0.965
 0 
CIRCLE
 8 
0
 62 
 7 
 10 
40.005
 20 
52.07
 40 
0.508
 0 
CIRCLE
 8 
0
 62 
 7 
 10 
42.545
 20 
52.07
 40 
0.965
 0 
CIRCLE
 8 
0
 62 
 7 
 10 
42.545
 20 
52.07
 40 
0.508
 0 
LINE
 8 
0
 62 
 7 
 10 
3.81
 20 
33.655
 11 
3.81
 21 
18.415
 0 
CIRCLE
 8 
0
 62 
 7 
 10 
17.78
 20 
19.685
 40 
0.965
 0 
CIRCLE
 8 
0
 62 
 7 
 10 
17.78
 20 
19.685
 40 
0.508
 0 
CIRCLE
 8 
0
 62 
 7 
 10 
17.78
 20 
22.225
 40 
0.965
 0 
CIRCLE
 8 
0
 62 
 7 
 10 
17.78
 20 
22.225
 40 
0.508
 0 
LINE
 8 
0
 62 
 7 
 10 
19.05
 20 
18.415
 11 
3.81
 21 
18.415
 0 
CIRCLE
 8 
0
 62 
 7 
 10 
5.08
 20 
29.845
 40 
0.965
 0 
CIRCLE
 8 
0
 62 
 7 
 10 
5.08
 20 
29.845
 40 
0.508
 0 
LINE
 8 
0
 62 
 7 
 10 
17.78
 20 
41.91
 11 
17.78
 21 
40.894
 0 
LINE
 8 
0
 62 
 7 
 10 
17.78
 20 
40.894
 11 
18.466
 21 
40.894
 0 
LINE
 8 
0
 62 
 7 
 10 
19.126
 20 
41.91
 11 
19.126
 21 
41.732
 0 
LINE
 8 
0
 62 
 7 
 10 
18.974
 20 
40.894
 11 
19.304
 21 
40.894
 0 
LINE
 8 
0
 62 
 7 
 10 
18.974
 20 
41.402
 11 
19.126
 21 
41.402
 0 
LINE
 8 
0
 62 
 7 
 10 
19.126
 20 
41.402
 11 
19.126
 21 
40.894
 0 
LINE
 8 
0
 62 
 7 
 10 
20.142
 20 
41.732
 11 
20.142
 21 
41.072
 0 
LINE
 8 
0
 62 
 7 
 10 
19.812
 20 
41.402
 11 
20.498
 21 
41.402
 0 
LINE
 8 
0
 62 
 7 
 10 
3.861
 20 
44.272
 11 
3.683
 21 
44.45
 0 
LINE
 8 
0
 62 
 7 
 10 
3.683
 20 
44.45
 11 
3.353
 21 
44.45
 0 
LINE
 8 
0
 62 
 7 
 10 
3.353
 20 
44.45
 11 
3.175
 21 
44.272
 0 
LINE
 8 
0
 62 
 7 
 10 
3.175
 20 
44.272
 11 
3.175
 21 
43.612
 0 
LINE
 8 
0
 62 
 7 
 10 
3.175
 20 
43.612
 11 
3.353
 21 
43.434
 0 
LINE
 8 
0
 62 
 7 
 10 
3.353
 20 
43.434
 11 
3.861
 21 
43.434
 0 
LINE
 8 
0
 62 
 7 
 10 
3.861
 20 
43.434
 11 
3.861
 21 
43.764
 0 
LINE
 8 
0
 62 
 7 
 10 
3.861
 20 
43.764
 11 
3.683
 21 
43.764
 0 
LINE
 8 
0
 62 
 7 
 10 
4.191
 20 
43.434
 11 
4.191
 21 
44.45
 0 
LINE
 8 
0
 62 
 7 
 10 
4.191
 20 
44.45
 11 
4.877
 21 
43.764
 0 
LINE
 8 
0
 62 
 7 
 10 
4.877
 20 
44.45
 11 
4.877
 21 
43.434
 0 
LINE
 8 
0
 62 
 7 
 10 
5.207
 20 
44.45
 11 
5.715
 21 
44.45
 0 
LINE
 8 
0
 62 
 7 
 10 
5.715
 20 
44.45
 11 
5.893
 21 
44.272
 0 
LINE
 8 
0
 62 
 7 
 10 
5.893
 20 
44.272
 11 
5.893
 21 
43.612
 0 
LINE
 8 
0
 62 
 7 
 10 
5.893
 20 
43.612
 11 
5.715
 21 
43.434
 0 
LINE
 8 
0
 62 
 7 
 10 
5.715
 20 
43.434
 11 
5.207
 21 
43.434
 0 
LINE
 8 
0
 62 
 7 
 10 
5.385
 20 
44.45
 11 
5.385
 21 
43.434
 0 
CIRCLE
 8 
0
 62 
 7 
 10 
5.08
 20 
32.385
 40 
0.965
 0 
CIRCLE
 8 
0
 62 
 7 
 10 
5.08
 20 
32.385
 40 
0.508
 0 
CIRCLE
 8 
0
 62 
 7 
 10 
17.78
 20 
24.765
 40 
0.965
 0 
CIRCLE
 8 
0
 62 
 7 
 10 
17.78
 20 
24.765
 40 
0.508
 0 
CIRCLE
 8 
0
 62 
 7 
 10 
17.78
 20 
27.305
 40 
0.965
 0 
CIRCLE
 8 
0
 62 
 7 
 10 
17.78
 20 
27.305
 40 
0.508
 0 
CIRCLE
 8 
0
 62 
 7 
 10 
17.78
 20 
29.845
 40 
0.965
 0 
CIRCLE
 8 
0
 62 
 7 
 10 
17.78
 20 
29.845
 40 
0.508
 0 
CIRCLE
 8 
0
 62 
 7 
 10 
17.78
 20 
32.385
 40 
0.965
 0 
CIRCLE
 8 
0
 62 
 7 
 10 
17.78
 20 
32.385
 40 
0.508
 0 
LINE
 8 
0
 62 
 7 
 10 
19.05
 20 
33.655
 11 
19.05
 21 
18.415
 0 
LINE
 8 
0
 62 
 7 
 10 
19.05
 20 
33.655
 11 
3.81
 21 
33.655
 0 
LINE
 8 
0
 62 
 7 
 10 
41.605
 20 
21.895
 11 
43.51
 21 
21.895
 0 
LINE
 8 
0
 62 
 7 
 10 
43.51
 20 
21.895
 11 
43.51
 21 
19.99
 0 
LINE
 8 
0
 62 
 7 
 10 
43.51
 20 
19.99
 11 
41.605
 21 
19.99
 0 
LINE
 8 
0
 62 
 7 
 10 
41.605
 20 
19.99
 11 
41.605
 21 
21.895
 0 
CIRCLE
 8 
0
 62 
 7 
 10 
42.545
 20 
20.955
 40 
0.508
 0 
CIRCLE
 8 
0
 62 
 7 
 10 
42.545
 20 
23.495
 40 
0.965
 0 
CIRCLE
 8 
0
 62 
 7 
 10 
42.545
 20 
23.495
 40 
0.508
 0 
LINE
 8 
0
 62 
 7 
 10 
9.525
 20 
30.48
 11 
10.363
 21 
30.48
 0 
LINE
 8 
0
 62 
 7 
 10 
10.363
 20 
30.48
 11 
10.795
 21 
30.048
 0 
LINE
 8 
0
 62 
 7 
 10 
10.795
 20 
30.048
 11 
10.363
 21 
29.642
 0 
LINE
 8 
0
 62 
 7 
 10 
10.363
 20 
29.642
 11 
9.525
 21 
29.642
 0 
LINE
 8 
0
 62 
 7 
 10 
9.957
 20 
30.48
 11 
9.957
 21 
29.642
 0 
LINE
 8 
0
 62 
 7 
 10 
10.795
 20 
29.21
 11 
10.795
 21 
28.575
 0 
LINE
 8 
0
 62 
 7 
 10 
10.795
 20 
28.575
 11 
10.592
 21 
28.372
 0 
LINE
 8 
0
 62 
 7 
 10 
10.592
 20 
28.372
 11 
9.728
 21 
28.372
 0 
LINE
 8 
0
 62 
 7 
 10 
9.728
 20 
28.372
 11 
9.525
 21 
28.575
 0 
LINE
 8 
0
 62 
 7 
 10 
9.525
 20 
28.575
 11 
9.525
 21 
29.21
 0 
LINE
 8 
0
 62 
 7 
 10 
10.795
 20 
29.007
 11 
9.525
 21 
29.007
 0 
LINE
 8 
0
 62 
 7 
 10 
10.592
 20 
27.102
 11 
10.795
 21 
27.305
 0 
LINE
 8 
0
 62 
 7 
 10 
10.795
 20 
27.305
 11 
10.795
 21 
27.737
 0 
LINE
 8 
0
 62 
 7 
 10 
10.795
 20 
27.737
 11 
10.592
 21 
27.94
 0 
LINE
 8 
0
 62 
 7 
 10 
10.592
 20 
27.94
 11 
10.363
 21 
27.94
 0 
LINE
 8 
0
 62 
 7 
 10 
10.363
 20 
27.94
 11 
10.16
 21 
27.737
 0 
LINE
 8 
0
 62 
 7 
 10 
10.16
 20 
27.737
 11 
10.16
 21 
27.305
 0 
LINE
 8 
0
 62 
 7 
 10 
10.16
 20 
27.305
 11 
9.957
 21 
27.102
 0 
LINE
 8 
0
 62 
 7 
 10 
9.957
 20 
27.102
 11 
9.728
 21 
27.102
 0 
LINE
 8 
0
 62 
 7 
 10 
9.728
 20 
27.102
 11 
9.525
 21 
27.305
 0 
LINE
 8 
0
 62 
 7 
 10 
9.525
 20 
27.305
 11 
9.525
 21 
27.737
 0 
LINE
 8 
0
 62 
 7 
 10 
9.525
 20 
27.737
 11 
9.728
 21 
27.94
 0 
LINE
 8 
0
 62 
 7 
 10 
10.592
 20 
26.467
 11 
10.795
 21 
26.238
 0 
LINE
 8 
0
 62 
 7 
 10 
10.795
 20 
26.238
 11 
9.525
 21 
26.238
 0 
LINE
 8 
0
 62 
 7 
 10 
9.525
 20 
26.467
 11 
9.525
 21 
26.035
 0 
LINE
 8 
0
 62 
 7 
 10 
10.592
 20 
25.197
 11 
10.795
 21 
24.968
 0 
LINE
 8 
0
 62 
 7 
 10 
10.795
 20 
24.968
 11 
9.525
 21 
24.968
 0 
LINE
 8 
0
 62 
 7 
 10 
9.525
 20 
25.197
 11 
9.525
 21 
24.765
 0 
LINE
 8 
0
 62 
 7 
 10 
10.592
 20 
23.927
 11 
10.795
 21 
23.698
 0 
LINE
 8 
0
 62 
 7 
 10 
10.795
 20 
23.698
 11 
9.525
 21 
23.698
 0 
LINE
 8 
0
 62 
 7 
 10 
9.525
 20 
23.927
 11 
9.525
 21 
23.495
 0 
LINE
 8 
0
 62 
 7 
 10 
10.795
 20 
22.022
 11 
10.795
 21 
22.86
 0 
LINE
 8 
0
 62 
 7 
 10 
10.795
 20 
22.86
 11 
10.363
 21 
22.86
 0 
LINE
 8 
0
 62 
 7 
 10 
10.363
 20 
22.86
 11 
10.363
 21 
22.225
 0 
LINE
 8 
0
 62 
 7 
 10 
10.363
 20 
22.225
 11 
10.16
 21 
22.022
 0 
LINE
 8 
0
 62 
 7 
 10 
10.16
 20 
22.022
 11 
9.728
 21 
22.022
 0 
LINE
 8 
0
 62 
 7 
 10 
9.728
 20 
22.022
 11 
9.525
 21 
22.225
 0 
LINE
 8 
0
 62 
 7 
 10 
9.525
 20 
22.225
 11 
9.525
 21 
22.657
 0 
LINE
 8 
0
 62 
 7 
 10 
9.525
 20 
22.657
 11 
9.728
 21 
22.86
 0 
CIRCLE
 8 
0
 62 
 7 
 10 
42.545
 20 
26.035
 40 
0.965
 0 
CIRCLE
 8 
0
 62 
 7 
 10 
42.545
 20 
26.035
 40 
0.508
 0 
CIRCLE
 8 
0
 62 
 7 
 10 
42.545
 20 
28.575
 40 
0.965
 0 
CIRCLE
 8 
0
 62 
 7 
 10 
42.545
 20 
28.575
 40 
0.508
 0 
CIRCLE
 8 
0
 62 
 7 
 10 
42.545
 20 
31.115
 40 
0.965
 0 
CIRCLE
 8 
0
 62 
 7 
 10 
42.545
 20 
31.115
 40 
0.508
 0 
CIRCLE
 8 
0
 62 
 7 
 10 
42.545
 20 
33.655
 40 
0.965
 0 
CIRCLE
 8 
0
 62 
 7 
 10 
42.545
 20 
33.655
 40 
0.508
 0 
CIRCLE
 8 
0
 62 
 7 
 10 
42.545
 20 
36.195
 40 
0.965
 0 
CIRCLE
 8 
0
 62 
 7 
 10 
42.545
 20 
36.195
 40 
0.508
 0 
CIRCLE
 8 
0
 62 
 7 
 10 
42.545
 20 
38.735
 40 
0.965
 0 
CIRCLE
 8 
0
 62 
 7 
 10 
42.545
 20 
38.735
 40 
0.508
 0 
CIRCLE
 8 
0
 62 
 7 
 10 
42.545
 20 
41.275
 40 
0.965
 0 
CIRCLE
 8 
0
 62 
 7 
 10 
42.545
 20 
41.275
 40 
0.508
 0 
CIRCLE
 8 
0
 62 
 7 
 10 
42.545
 20 
43.815
 40 
0.965
 0 
CIRCLE
 8 
0
 62 
 7 
 10 
42.545
 20 
43.815
 40 
0.508
 0 
CIRCLE
 8 
0
 62 
 7 
 10 
42.545
 20 
46.355
 40 
0.965
 0 
CIRCLE
 8 
0
 62 
 7 
 10 
42.545
 20 
46.355
 40 
0.508
 0 
CIRCLE
 8 
0
 62 
 7 
 10 
42.545
 20 
48.895
 40 
0.965
 0 
CIRCLE
 8 
0
 62 
 7 
 10 
42.545
 20 
48.895
 40 
0.508
 0 
CIRCLE
 8 
0
 62 
 7 
 10 
27.305
 20 
48.895
 40 
0.965
 0 
CIRCLE
 8 
0
 62 
 7 
 10 
27.305
 20 
48.895
 40 
0.508
 0 
CIRCLE
 8 
0
 62 
 7 
 10 
27.305
 20 
23.495
 40 
0.965
 0 
CIRCLE
 8 
0
 62 
 7 
 10 
27.305
 20 
23.495
 40 
0.508
 0 
CIRCLE
 8 
0
 62 
 7 
 10 
27.305
 20 
26.035
 40 
0.965
 0 
CIRCLE
 8 
0
 62 
 7 
 10 
27.305
 20 
26.035
 40 
0.508
 0 
CIRCLE
 8 
0
 62 
 7 
 10 
27.305
 20 
28.575
 40 
0.965
 0 
CIRCLE
 8 
0
 62 
 7 
 10 
27.305
 20 
28.575
 40 
0.508
 0 
CIRCLE
 8 
0
 62 
 7 
 10 
27.305
 20 
31.115
 40 
0.965
 0 
CIRCLE
 8 
0
 62 
 7 
 10 
27.305
 20 
31.115
 40 
0.508
 0 
CIRCLE
 8 
0
 62 
 7 
 10 
27.305
 20 
33.655
 40 
0.965
 0 
CIRCLE
 8 
0
 62 
 7 
 10 
27.305
 20 
33.655
 40 
0.508
 0 
CIRCLE
 8 
0
 62 
 7 
 10 
27.305
 20 
36.195
 40 
0.965
 0 
CIRCLE
 8 
0
 62 
 7 
 10 
27.305
 20 
36.195
 40 
0.508
 0 
CIRCLE
 8 
0
 62 
 7 
 10 
27.305
 20 
38.735
 40 
0.965
 0 
CIRCLE
 8 
0
 62 
 7 
 10 
27.305
 20 
38.735
 40 
0.508
 0 
CIRCLE
 8 
0
 62 
 7 
 10 
27.305
 20 
41.275
 40 
0.965
 0 
CIRCLE
 8 
0
 62 
 7 
 10 
27.305
 20 
41.275
 40 
0.508
 0 
CIRCLE
 8 
0
 62 
 7 
 10 
27.305
 20 
43.815
 40 
0.965
 0 
CIRCLE
 8 
0
 62 
 7 
 10 
27.305
 20 
43.815
 40 
0.508
 0 
CIRCLE
 8 
0
 62 
 7 
 10 
27.305
 20 
46.355
 40 
0.965
 0 
CIRCLE
 8 
0
 62 
 7 
 10 
27.305
 20 
46.355
 40 
0.508
 0 
CIRCLE
 8 
0
 62 
 7 
 10 
27.305
 20 
20.955
 40 
0.965
 0 
CIRCLE
 8 
0
 62 
 7 
 10 
27.305
 20 
20.955
 40 
0.508
 0 
CIRCLE
 8 
0
 62 
 7 
 10 
38.735
 20 
18.415
 40 
0.965
 0 
CIRCLE
 8 
0
 62 
 7 
 10 
38.735
 20 
18.415
 40 
0.508
 0 
CIRCLE
 8 
0
 62 
 7 
 10 
36.195
 20 
18.415
 40 
0.965
 0 
CIRCLE
 8 
0
 62 
 7 
 10 
36.195
 20 
18.415
 40 
0.508
 0 
CIRCLE
 8 
0
 62 
 7 
 10 
33.655
 20 
18.415
 40 
0.965
 0 
CIRCLE
 8 
0
 62 
 7 
 10 
33.655
 20 
18.415
 40 
0.508
 0 
CIRCLE
 8 
0
 62 
 7 
 10 
31.115
 20 
18.415
 40 
0.965
 0 
CIRCLE
 8 
0
 62 
 7 
 10 
31.115
 20 
18.415
 40 
0.508
 0 
CIRCLE
 8 
0
 62 
 7 
 10 
28.575
 20 
18.415
 40 
0.965
 0 
CIRCLE
 8 
0
 62 
 7 
 10 
28.575
 20 
18.415
 40 
0.508
 0 
CIRCLE
 8 
0
 62 
 7 
 10 
41.275
 20 
18.415
 40 
0.965
 0 
CIRCLE
 8 
0
 62 
 7 
 10 
41.275
 20 
18.415
 40 
0.508
 0 
CIRCLE
 8 
0
 62 
 7 
 10 
30.226
 20 
32.258
 40 
0.965
 0 
CIRCLE
 8 
0
 62 
 7 
 10 
30.226
 20 
32.258
 40 
0.508
 0 
CIRCLE
 8 
0
 62 
 7 
 10 
30.226
 20 
29.718
 40 
0.965
 0 
CIRCLE
 8 
0
 62 
 7 
 10 
30.226
 20 
29.718
 40 
0.508
 0 
CIRCLE
 8 
0
 62 
 7 
 10 
31.75
 20 
2.54
 40 
0.965
 0 
CIRCLE
 8 
0
 62 
 7 
 10 
31.75
 20 
2.54
 40 
0.508
 0 
CIRCLE
 8 
0
 62 
 7 
 10 
34.29
 20 
2.54
 40 
0.965
 0 
CIRCLE
 8 
0
 62 
 7 
 10 
34.29
 20 
2.54
 40 
0.508
 0 
CIRCLE
 8 
0
 62 
 7 
 10 
36.83
 20 
2.54
 40 
0.965
 0 
CIRCLE
 8 
0
 62 
 7 
 10 
36.83
 20 
2.54
 40 
0.508
 0 
CIRCLE
 8 
0
 62 
 7 
 10 
39.37
 20 
2.54
 40 
0.965
 0 
CIRCLE
 8 
0
 62 
 7 
 10 
39.37
 20 
2.54
 40 
0.508
 0 
LINE
 8 
0
 62 
 7 
 10 
20.955
 20 
53.975
 11 
20.955
 21 
23.495
 0 
LINE
 8 
0
 62 
 7 
 10 
46.355
 20 
23.495
 11 
20.955
 21 
23.495
 0 
LINE
 8 
0
 62 
 7 
 10 
46.355
 20 
53.975
 11 
46.355
 21 
23.495
 0 
LINE
 8 
0
 62 
 7 
 10 
23.495
 20 
53.34
 11 
23.495
 21 
50.8
 0 
LINE
 8 
0
 62 
 7 
 10 
43.815
 20 
50.8
 11 
23.495
 21 
50.8
 0 
LINE
 8 
0
 62 
 7 
 10 
43.815
 20 
50.8
 11 
43.815
 21 
53.34
 0 
LINE
 8 
0
 62 
 7 
 10 
23.495
 20 
53.34
 11 
43.815
 21 
53.34
 0 
LINE
 8 
0
 62 
 7 
 10 
24.13
 20 
48.539
 11 
24.13
 21 
47.904
 0 
LINE
 8 
0
 62 
 7 
 10 
24.13
 20 
47.904
 11 
24.46
 21 
47.904
 0 
LINE
 8 
0
 62 
 7 
 10 
24.46
 20 
47.904
 11 
24.46
 21 
48.387
 0 
LINE
 8 
0
 62 
 7 
 10 
24.46
 20 
48.387
 11 
24.613
 21 
48.539
 0 
LINE
 8 
0
 62 
 7 
 10 
24.613
 20 
48.539
 11 
24.943
 21 
48.539
 0 
LINE
 8 
0
 62 
 7 
 10 
24.943
 20 
48.539
 11 
25.095
 21 
48.387
 0 
LINE
 8 
0
 62 
 7 
 10 
25.095
 20 
48.387
 11 
25.095
 21 
48.057
 0 
LINE
 8 
0
 62 
 7 
 10 
25.095
 20 
48.057
 11 
24.943
 21 
47.904
 0 
LINE
 8 
0
 62 
 7 
 10 
24.13
 20 
48.87
 11 
24.613
 21 
48.87
 0 
LINE
 8 
0
 62 
 7 
 10 
24.613
 20 
48.87
 11 
24.943
 21 
49.2
 0 
LINE
 8 
0
 62 
 7 
 10 
24.943
 20 
49.2
 11 
24.613
 21 
49.505
 0 
LINE
 8 
0
 62 
 7 
 10 
24.613
 20 
49.505
 11 
24.13
 21 
49.505
 0 
LINE
 8 
0
 62 
 7 
 10 
24.943
 20 
49.2
 11 
25.095
 21 
49.2
 0 
LINE
 8 
0
 62 
 7 
 10 
45.466
 20 
52.222
 11 
45.618
 21 
52.375
 0 
LINE
 8 
0
 62 
 7 
 10 
45.618
 20 
52.375
 11 
45.618
 21 
52.705
 0 
LINE
 8 
0
 62 
 7 
 10 
45.618
 20 
52.705
 11 
45.466
 21 
52.857
 0 
LINE
 8 
0
 62 
 7 
 10 
45.466
 20 
52.857
 11 
44.806
 21 
52.857
 0 
LINE
 8 
0
 62 
 7 
 10 
44.806
 20 
52.857
 11 
44.653
 21 
52.705
 0 
LINE
 8 
0
 62 
 7 
 10 
44.653
 20 
52.705
 11 
44.653
 21 
52.375
 0 
LINE
 8 
0
 62 
 7 
 10 
44.653
 20 
52.375
 11 
44.806
 21 
52.222
 0 
LINE
 8 
0
 62 
 7 
 10 
45.618
 20 
51.892
 11 
45.618
 21 
51.41
 0 
LINE
 8 
0
 62 
 7 
 10 
45.618
 20 
51.41
 11 
45.466
 21 
51.257
 0 
LINE
 8 
0
 62 
 7 
 10 
45.466
 20 
51.257
 11 
44.806
 21 
51.257
 0 
LINE
 8 
0
 62 
 7 
 10 
44.806
 20 
51.257
 11 
44.653
 21 
51.41
 0 
LINE
 8 
0
 62 
 7 
 10 
44.653
 20 
51.41
 11 
44.653
 21 
51.892
 0 
LINE
 8 
0
 62 
 7 
 10 
45.618
 20 
51.74
 11 
44.653
 21 
51.74
 0 
LINE
 8 
0
 62 
 7 
 10 
46.355
 20 
53.975
 11 
20.955
 21 
53.975
 0 
LINE
 8 
0
 62 
 7 
 10 
26.035
 20 
17.145
 11 
26.035
 21 
50.165
 0 
LINE
 8 
0
 62 
 7 
 10 
26.035
 20 
17.145
 11 
43.815
 21 
17.145
 0 
LINE
 8 
0
 62 
 7 
 10 
26.035
 20 
50.165
 11 
43.815
 21 
50.165
 0 
LINE
 8 
0
 62 
 7 
 10 
43.815
 20 
17.145
 11 
43.815
 21 
50.165
 0 
LINE
 8 
0
 62 
 7 
 10 
37.084
 20 
22.86
 11 
36.068
 21 
22.86
 0 
LINE
 8 
0
 62 
 7 
 10 
36.068
 20 
22.86
 11 
35.56
 21 
23.368
 0 
LINE
 8 
0
 62 
 7 
 10 
35.56
 20 
23.368
 11 
36.068
 21 
23.876
 0 
LINE
 8 
0
 62 
 7 
 10 
36.068
 20 
23.876
 11 
37.084
 21 
23.876
 0 
LINE
 8 
0
 62 
 7 
 10 
36.576
 20 
22.86
 11 
36.576
 21 
23.876
 0 
LINE
 8 
0
 62 
 7 
 10 
36.068
 20 
24.384
 11 
37.084
 21 
24.384
 0 
LINE
 8 
0
 62 
 7 
 10 
36.576
 20 
24.384
 11 
36.068
 21 
24.892
 0 
LINE
 8 
0
 62 
 7 
 10 
36.068
 20 
24.892
 11 
36.068
 21 
25.146
 0 
LINE
 8 
0
 62 
 7 
 10 
36.068
 20 
25.146
 11 
36.322
 21 
25.4
 0 
LINE
 8 
0
 62 
 7 
 10 
35.56
 20 
26.67
 11 
35.56
 21 
26.924
 0 
LINE
 8 
0
 62 
 7 
 10 
35.56
 20 
26.924
 11 
37.084
 21 
26.924
 0 
LINE
 8 
0
 62 
 7 
 10 
36.322
 20 
26.924
 11 
36.068
 21 
26.67
 0 
LINE
 8 
0
 62 
 7 
 10 
36.068
 20 
26.67
 11 
36.068
 21 
26.162
 0 
LINE
 8 
0
 62 
 7 
 10 
36.068
 20 
26.162
 11 
36.322
 21 
25.908
 0 
LINE
 8 
0
 62 
 7 
 10 
36.322
 20 
25.908
 11 
36.83
 21 
25.908
 0 
LINE
 8 
0
 62 
 7 
 10 
36.83
 20 
25.908
 11 
37.084
 21 
26.162
 0 
LINE
 8 
0
 62 
 7 
 10 
37.084
 20 
26.162
 11 
37.084
 21 
26.416
 0 
LINE
 8 
0
 62 
 7 
 10 
37.084
 20 
26.416
 11 
36.576
 21 
26.924
 0 
LINE
 8 
0
 62 
 7 
 10 
36.068
 20 
27.432
 11 
36.83
 21 
27.432
 0 
LINE
 8 
0
 62 
 7 
 10 
36.83
 20 
27.432
 11 
37.084
 21 
27.686
 0 
LINE
 8 
0
 62 
 7 
 10 
37.084
 20 
27.686
 11 
37.084
 21 
27.94
 0 
LINE
 8 
0
 62 
 7 
 10 
37.084
 20 
27.94
 11 
36.576
 21 
28.448
 0 
LINE
 8 
0
 62 
 7 
 10 
36.068
 20 
28.448
 11 
37.084
 21 
28.448
 0 
LINE
 8 
0
 62 
 7 
 10 
35.56
 20 
29.464
 11 
35.814
 21 
29.464
 0 
LINE
 8 
0
 62 
 7 
 10 
37.084
 20 
29.21
 11 
37.084
 21 
29.718
 0 
LINE
 8 
0
 62 
 7 
 10 
36.322
 20 
29.21
 11 
36.322
 21 
29.464
 0 
LINE
 8 
0
 62 
 7 
 10 
36.322
 20 
29.464
 11 
37.084
 21 
29.464
 0 
LINE
 8 
0
 62 
 7 
 10 
36.068
 20 
30.48
 11 
37.084
 21 
30.48
 0 
LINE
 8 
0
 62 
 7 
 10 
36.576
 20 
30.48
 11 
36.068
 21 
30.988
 0 
LINE
 8 
0
 62 
 7 
 10 
36.068
 20 
30.988
 11 
36.068
 21 
31.242
 0 
LINE
 8 
0
 62 
 7 
 10 
36.068
 20 
31.242
 11 
36.322
 21 
31.496
 0 
LINE
 8 
0
 62 
 7 
 10 
36.322
 20 
31.496
 11 
37.084
 21 
31.496
 0 
LINE
 8 
0
 62 
 7 
 10 
36.322
 20 
33.02
 11 
36.068
 21 
32.766
 0 
LINE
 8 
0
 62 
 7 
 10 
36.068
 20 
32.766
 11 
36.068
 21 
32.258
 0 
LINE
 8 
0
 62 
 7 
 10 
36.068
 20 
32.258
 11 
36.322
 21 
32.004
 0 
LINE
 8 
0
 62 
 7 
 10 
36.322
 20 
32.004
 11 
36.83
 21 
32.004
 0 
LINE
 8 
0
 62 
 7 
 10 
36.83
 20 
32.004
 11 
37.084
 21 
32.258
 0 
LINE
 8 
0
 62 
 7 
 10 
37.084
 20 
32.258
 11 
37.084
 21 
32.766
 0 
LINE
 8 
0
 62 
 7 
 10 
37.084
 20 
32.766
 11 
36.83
 21 
33.02
 0 
LINE
 8 
0
 62 
 7 
 10 
36.83
 20 
33.02
 11 
36.322
 21 
33.02
 0 
LINE
 8 
0
 62 
 7 
 10 
37.084
 20 
35.052
 11 
35.56
 21 
35.052
 0 
LINE
 8 
0
 62 
 7 
 10 
35.56
 20 
35.052
 11 
35.56
 21 
35.814
 0 
LINE
 8 
0
 62 
 7 
 10 
35.56
 20 
35.814
 11 
35.814
 21 
36.068
 0 
LINE
 8 
0
 62 
 7 
 10 
35.814
 20 
36.068
 11 
36.068
 21 
36.068
 0 
LINE
 8 
0
 62 
 7 
 10 
36.068
 20 
36.068
 11 
36.322
 21 
35.814
 0 
LINE
 8 
0
 62 
 7 
 10 
36.322
 20 
35.814
 11 
36.322
 21 
35.052
 0 
LINE
 8 
0
 62 
 7 
 10 
36.068
 20 
36.576
 11 
37.084
 21 
36.576
 0 
LINE
 8 
0
 62 
 7 
 10 
36.576
 20 
36.576
 11 
36.068
 21 
37.084
 0 
LINE
 8 
0
 62 
 7 
 10 
36.068
 20 
37.084
 11 
36.068
 21 
37.338
 0 
LINE
 8 
0
 62 
 7 
 10 
36.068
 20 
37.338
 11 
36.322
 21 
37.592
 0 
LINE
 8 
0
 62 
 7 
 10 
36.322
 20 
39.116
 11 
36.068
 21 
38.862
 0 
LINE
 8 
0
 62 
 7 
 10 
36.068
 20 
38.862
 11 
36.068
 21 
38.354
 0 
LINE
 8 
0
 62 
 7 
 10 
36.068
 20 
38.354
 11 
36.322
 21 
38.1
 0 
LINE
 8 
0
 62 
 7 
 10 
36.322
 20 
38.1
 11 
36.83
 21 
38.1
 0 
LINE
 8 
0
 62 
 7 
 10 
36.83
 20 
38.1
 11 
37.084
 21 
38.354
 0 
LINE
 8 
0
 62 
 7 
 10 
37.084
 20 
38.354
 11 
37.084
 21 
38.862
 0 
LINE
 8 
0
 62 
 7 
 10 
37.084
 20 
38.862
 11 
36.83
 21 
39.116
 0 
LINE
 8 
0
 62 
 7 
 10 
36.83
 20 
39.116
 11 
36.322
 21 
39.116
 0 
LINE
 8 
0
 62 
 7 
 10 
37.084
 20 
41.148
 11 
35.56
 21 
41.148
 0 
LINE
 8 
0
 62 
 7 
 10 
35.56
 20 
41.148
 11 
36.068
 21 
41.656
 0 
LINE
 8 
0
 62 
 7 
 10 
36.068
 20 
41.656
 11 
36.322
 21 
41.656
 0 
LINE
 8 
0
 62 
 7 
 10 
36.068
 20 
41.656
 11 
35.56
 21 
42.164
 0 
LINE
 8 
0
 62 
 7 
 10 
35.56
 20 
42.164
 11 
37.084
 21 
42.164
 0 
LINE
 8 
0
 62 
 7 
 10 
35.56
 20 
43.18
 11 
35.814
 21 
43.18
 0 
LINE
 8 
0
 62 
 7 
 10 
37.084
 20 
42.926
 11 
37.084
 21 
43.434
 0 
LINE
 8 
0
 62 
 7 
 10 
36.322
 20 
42.926
 11 
36.322
 21 
43.18
 0 
LINE
 8 
0
 62 
 7 
 10 
36.322
 20 
43.18
 11 
37.084
 21 
43.18
 0 
LINE
 8 
0
 62 
 7 
 10 
36.068
 20 
44.196
 11 
37.084
 21 
44.196
 0 
LINE
 8 
0
 62 
 7 
 10 
36.576
 20 
44.196
 11 
36.068
 21 
44.704
 0 
LINE
 8 
0
 62 
 7 
 10 
36.068
 20 
44.704
 11 
36.068
 21 
44.958
 0 
LINE
 8 
0
 62 
 7 
 10 
36.068
 20 
44.958
 11 
36.322
 21 
45.212
 0 
LINE
 8 
0
 62 
 7 
 10 
36.322
 20 
45.212
 11 
37.084
 21 
45.212
 0 
LINE
 8 
0
 62 
 7 
 10 
35.56
 20 
46.228
 11 
35.814
 21 
46.228
 0 
LINE
 8 
0
 62 
 7 
 10 
37.084
 20 
45.974
 11 
37.084
 21 
46.482
 0 
LINE
 8 
0
 62 
 7 
 10 
36.322
 20 
45.974
 11 
36.322
 21 
46.228
 0 
LINE
 8 
0
 62 
 7 
 10 
36.322
 20 
46.228
 11 
37.084
 21 
46.228
 0 
LINE
 8 
0
 62 
 7 
 10 
32.131
 20 
33.02
 11 
31.445
 21 
33.02
 0 
LINE
 8 
0
 62 
 7 
 10 
31.445
 20 
33.02
 11 
31.115
 21 
33.35
 0 
LINE
 8 
0
 62 
 7 
 10 
31.115
 20 
33.35
 11 
31.445
 21 
33.706
 0 
LINE
 8 
0
 62 
 7 
 10 
31.445
 20 
33.706
 11 
32.131
 21 
33.706
 0 
LINE
 8 
0
 62 
 7 
 10 
31.801
 20 
33.02
 11 
31.801
 21 
33.706
 0 
LINE
 8 
0
 62 
 7 
 10 
31.801
 20 
34.722
 11 
31.801
 21 
34.036
 0 
LINE
 8 
0
 62 
 7 
 10 
31.801
 20 
34.036
 11 
31.623
 21 
34.036
 0 
LINE
 8 
0
 62 
 7 
 10 
31.623
 20 
34.036
 11 
31.115
 21 
34.544
 0 
LINE
 8 
0
 62 
 7 
 10 
31.115
 20 
34.544
 11 
32.131
 21 
34.544
 0 
LINE
 8 
0
 62 
 7 
 10 
32.131
 20 
27.305
 11 
31.445
 21 
27.305
 0 
LINE
 8 
0
 62 
 7 
 10 
31.445
 20 
27.305
 11 
31.115
 21 
27.635
 0 
LINE
 8 
0
 62 
 7 
 10 
31.115
 20 
27.635
 11 
31.445
 21 
27.991
 0 
LINE
 8 
0
 62 
 7 
 10 
31.445
 20 
27.991
 11 
32.131
 21 
27.991
 0 
LINE
 8 
0
 62 
 7 
 10 
31.801
 20 
27.305
 11 
31.801
 21 
27.991
 0 
LINE
 8 
0
 62 
 7 
 10 
31.115
 20 
29.007
 11 
31.115
 21 
28.321
 0 
LINE
 8 
0
 62 
 7 
 10 
31.115
 20 
28.321
 11 
31.445
 21 
28.321
 0 
LINE
 8 
0
 62 
 7 
 10 
31.445
 20 
28.321
 11 
31.445
 21 
28.829
 0 
LINE
 8 
0
 62 
 7 
 10 
31.445
 20 
28.829
 11 
31.623
 21 
29.007
 0 
LINE
 8 
0
 62 
 7 
 10 
31.623
 20 
29.007
 11 
31.953
 21 
29.007
 0 
LINE
 8 
0
 62 
 7 
 10 
31.953
 20 
29.007
 11 
32.131
 21 
28.829
 0 
LINE
 8 
0
 62 
 7 
 10 
32.131
 20 
28.829
 11 
32.131
 21 
28.499
 0 
LINE
 8 
0
 62 
 7 
 10 
32.131
 20 
28.499
 11 
31.953
 21 
28.321
 0 
LINE
 8 
0
 62 
 7 
 10 
40.183
 20 
31.115
 11 
40.005
 21 
31.293
 0 
LINE
 8 
0
 62 
 7 
 10 
40.005
 20 
31.293
 11 
40.005
 21 
31.623
 0 
LINE
 8 
0
 62 
 7 
 10 
40.005
 20 
31.623
 11 
40.183
 21 
31.801
 0 
LINE
 8 
0
 62 
 7 
 10 
40.183
 20 
31.801
 11 
40.335
 21 
31.801
 0 
LINE
 8 
0
 62 
 7 
 10 
40.335
 20 
31.801
 11 
40.513
 21 
31.623
 0 
LINE
 8 
0
 62 
 7 
 10 
40.513
 20 
31.623
 11 
40.513
 21 
31.293
 0 
LINE
 8 
0
 62 
 7 
 10 
40.513
 20 
31.293
 11 
40.691
 21 
31.115
 0 
LINE
 8 
0
 62 
 7 
 10 
40.691
 20 
31.115
 11 
41.021
 21 
31.115
 0 
LINE
 8 
0
 62 
 7 
 10 
41.021
 20 
31.115
 11 
41.021
 21 
31.801
 0 
LINE
 8 
0
 62 
 7 
 10 
40.335
 20 
49.581
 11 
40.513
 21 
49.403
 0 
LINE
 8 
0
 62 
 7 
 10 
40.513
 20 
49.403
 11 
40.513
 21 
49.073
 0 
LINE
 8 
0
 62 
 7 
 10 
40.513
 20 
49.073
 11 
40.335
 21 
48.895
 0 
LINE
 8 
0
 62 
 7 
 10 
40.335
 20 
48.895
 11 
40.183
 21 
48.895
 0 
LINE
 8 
0
 62 
 7 
 10 
40.183
 20 
48.895
 11 
40.005
 21 
49.073
 0 
LINE
 8 
0
 62 
 7 
 10 
40.005
 20 
49.073
 11 
40.005
 21 
49.403
 0 
LINE
 8 
0
 62 
 7 
 10 
40.005
 20 
49.403
 11 
40.183
 21 
49.581
 0 
LINE
 8 
0
 62 
 7 
 10 
40.183
 20 
49.581
 11 
40.691
 21 
49.581
 0 
LINE
 8 
0
 62 
 7 
 10 
40.691
 20 
49.581
 11 
41.021
 21 
49.225
 0 
LINE
 8 
0
 62 
 7 
 10 
41.021
 20 
49.225
 11 
41.021
 21 
49.073
 0 
LINE
 8 
0
 62 
 7 
 10 
28.753
 20 
48.438
 11 
28.575
 21 
48.59
 0 
LINE
 8 
0
 62 
 7 
 10 
28.575
 20 
48.59
 11 
29.591
 21 
48.59
 0 
LINE
 8 
0
 62 
 7 
 10 
29.591
 20 
48.438
 11 
29.591
 21 
48.768
 0 
LINE
 8 
0
 62 
 7 
 10 
29.413
 20 
49.276
 11 
28.753
 21 
49.276
 0 
LINE
 8 
0
 62 
 7 
 10 
28.753
 20 
49.276
 11 
28.575
 21 
49.454
 0 
LINE
 8 
0
 62 
 7 
 10 
28.575
 20 
49.454
 11 
28.575
 21 
49.784
 0 
LINE
 8 
0
 62 
 7 
 10 
28.575
 20 
49.784
 11 
28.753
 21 
49.962
 0 
LINE
 8 
0
 62 
 7 
 10 
28.753
 20 
49.962
 11 
29.413
 21 
49.962
 0 
LINE
 8 
0
 62 
 7 
 10 
29.413
 20 
49.962
 11 
29.591
 21 
49.784
 0 
LINE
 8 
0
 62 
 7 
 10 
29.591
 20 
49.784
 11 
29.591
 21 
49.454
 0 
LINE
 8 
0
 62 
 7 
 10 
29.591
 20 
49.454
 11 
29.413
 21 
49.276
 0 
LINE
 8 
0
 62 
 7 
 10 
29.413
 20 
49.276
 11 
28.753
 21 
49.962
 0 
LINE
 8 
0
 62 
 7 
 10 
28.118
 20 
40.818
 11 
27.94
 21 
40.97
 0 
LINE
 8 
0
 62 
 7 
 10 
27.94
 20 
40.97
 11 
28.956
 21 
40.97
 0 
LINE
 8 
0
 62 
 7 
 10 
28.956
 20 
40.818
 11 
28.956
 21 
41.148
 0 
LINE
 8 
0
 62 
 7 
 10 
28.118
 20 
41.656
 11 
27.94
 21 
41.834
 0 
LINE
 8 
0
 62 
 7 
 10 
27.94
 20 
41.834
 11 
27.94
 21 
42.164
 0 
LINE
 8 
0
 62 
 7 
 10 
27.94
 20 
42.164
 11 
28.118
 21 
42.342
 0 
LINE
 8 
0
 62 
 7 
 10 
28.118
 20 
42.342
 11 
28.27
 21 
42.342
 0 
LINE
 8 
0
 62 
 7 
 10 
28.27
 20 
42.342
 11 
28.448
 21 
42.164
 0 
LINE
 8 
0
 62 
 7 
 10 
28.448
 20 
42.164
 11 
28.448
 21 
41.986
 0 
LINE
 8 
0
 62 
 7 
 10 
28.448
 20 
42.164
 11 
28.626
 21 
42.342
 0 
LINE
 8 
0
 62 
 7 
 10 
28.626
 20 
42.342
 11 
28.778
 21 
42.342
 0 
LINE
 8 
0
 62 
 7 
 10 
28.778
 20 
42.342
 11 
28.956
 21 
42.164
 0 
LINE
 8 
0
 62 
 7 
 10 
28.956
 20 
42.164
 11 
28.956
 21 
41.834
 0 
LINE
 8 
0
 62 
 7 
 10 
28.956
 20 
41.834
 11 
28.778
 21 
41.656
 0 
LINE
 8 
0
 62 
 7 
 10 
29.591
 20 
37.465
 11 
28.905
 21 
37.465
 0 
LINE
 8 
0
 62 
 7 
 10 
28.905
 20 
37.465
 11 
28.575
 21 
37.795
 0 
LINE
 8 
0
 62 
 7 
 10 
28.575
 20 
37.795
 11 
28.905
 21 
38.151
 0 
LINE
 8 
0
 62 
 7 
 10 
28.905
 20 
38.151
 11 
29.591
 21 
38.151
 0 
LINE
 8 
0
 62 
 7 
 10 
29.261
 20 
37.465
 11 
29.261
 21 
38.151
 0 
LINE
 8 
0
 62 
 7 
 10 
29.413
 20 
38.481
 11 
28.753
 21 
38.481
 0 
LINE
 8 
0
 62 
 7 
 10 
28.753
 20 
38.481
 11 
28.575
 21 
38.659
 0 
LINE
 8 
0
 62 
 7 
 10 
28.575
 20 
38.659
 11 
28.575
 21 
38.989
 0 
LINE
 8 
0
 62 
 7 
 10 
28.575
 20 
38.989
 11 
28.753
 21 
39.167
 0 
LINE
 8 
0
 62 
 7 
 10 
28.753
 20 
39.167
 11 
29.413
 21 
39.167
 0 
LINE
 8 
0
 62 
 7 
 10 
29.413
 20 
39.167
 11 
29.591
 21 
38.989
 0 
LINE
 8 
0
 62 
 7 
 10 
29.591
 20 
38.989
 11 
29.591
 21 
38.659
 0 
LINE
 8 
0
 62 
 7 
 10 
29.591
 20 
38.659
 11 
29.413
 21 
38.481
 0 
LINE
 8 
0
 62 
 7 
 10 
29.413
 20 
38.481
 11 
28.753
 21 
39.167
 0 
LINE
 8 
0
 62 
 7 
 10 
28.956
 20 
30.48
 11 
28.27
 21 
30.48
 0 
LINE
 8 
0
 62 
 7 
 10 
28.27
 20 
30.48
 11 
27.94
 21 
30.81
 0 
LINE
 8 
0
 62 
 7 
 10 
27.94
 20 
30.81
 11 
28.27
 21 
31.166
 0 
LINE
 8 
0
 62 
 7 
 10 
28.27
 20 
31.166
 11 
28.956
 21 
31.166
 0 
LINE
 8 
0
 62 
 7 
 10 
28.626
 20 
30.48
 11 
28.626
 21 
31.166
 0 
LINE
 8 
0
 62 
 7 
 10 
28.118
 20 
31.496
 11 
27.94
 21 
31.674
 0 
LINE
 8 
0
 62 
 7 
 10 
27.94
 20 
31.674
 11 
27.94
 21 
32.004
 0 
LINE
 8 
0
 62 
 7 
 10 
27.94
 20 
32.004
 11 
28.118
 21 
32.182
 0 
LINE
 8 
0
 62 
 7 
 10 
28.118
 20 
32.182
 11 
28.27
 21 
32.182
 0 
LINE
 8 
0
 62 
 7 
 10 
28.27
 20 
32.182
 11 
28.448
 21 
32.004
 0 
LINE
 8 
0
 62 
 7 
 10 
28.448
 20 
32.004
 11 
28.448
 21 
31.826
 0 
LINE
 8 
0
 62 
 7 
 10 
28.448
 20 
32.004
 11 
28.626
 21 
32.182
 0 
LINE
 8 
0
 62 
 7 
 10 
28.626
 20 
32.182
 11 
28.778
 21 
32.182
 0 
LINE
 8 
0
 62 
 7 
 10 
28.778
 20 
32.182
 11 
28.956
 21 
32.004
 0 
LINE
 8 
0
 62 
 7 
 10 
28.956
 20 
32.004
 11 
28.956
 21 
31.674
 0 
LINE
 8 
0
 62 
 7 
 10 
28.956
 20 
31.674
 11 
28.778
 21 
31.496
 0 
LINE
 8 
0
 62 
 7 
 10 
42.545
 20 
17.78
 11 
42.545
 21 
18.288
 0 
LINE
 8 
0
 62 
 7 
 10 
42.545
 20 
18.288
 11 
42.723
 21 
18.466
 0 
LINE
 8 
0
 62 
 7 
 10 
42.723
 20 
18.466
 11 
42.875
 21 
18.466
 0 
LINE
 8 
0
 62 
 7 
 10 
42.875
 20 
18.466
 11 
43.053
 21 
18.288
 0 
LINE
 8 
0
 62 
 7 
 10 
43.053
 20 
18.288
 11 
43.231
 21 
18.466
 0 
LINE
 8 
0
 62 
 7 
 10 
43.231
 20 
18.466
 11 
43.383
 21 
18.466
 0 
LINE
 8 
0
 62 
 7 
 10 
43.383
 20 
18.466
 11 
43.561
 21 
18.288
 0 
LINE
 8 
0
 62 
 7 
 10 
43.561
 20 
18.288
 11 
43.561
 21 
17.78
 0 
LINE
 8 
0
 62 
 7 
 10 
42.545
 20 
17.958
 11 
43.561
 21 
17.958
 0 
LINE
 8 
0
 62 
 7 
 10 
43.053
 20 
17.958
 11 
43.053
 21 
18.288
 0 
LINE
 8 
0
 62 
 7 
 10 
26.848
 20 
18.466
 11 
26.67
 21 
18.288
 0 
LINE
 8 
0
 62 
 7 
 10 
26.67
 20 
18.288
 11 
26.67
 21 
17.958
 0 
LINE
 8 
0
 62 
 7 
 10 
26.67
 20 
17.958
 11 
26.848
 21 
17.78
 0 
LINE
 8 
0
 62 
 7 
 10 
26.848
 20 
17.78
 11 
27.508
 21 
17.78
 0 
LINE
 8 
0
 62 
 7 
 10 
27.508
 20 
17.78
 11 
27.686
 21 
17.958
 0 
LINE
 8 
0
 62 
 7 
 10 
27.686
 20 
17.958
 11 
27.686
 21 
18.466
 0 
LINE
 8 
0
 62 
 7 
 10 
27.686
 20 
18.466
 11 
27.356
 21 
18.466
 0 
LINE
 8 
0
 62 
 7 
 10 
27.356
 20 
18.466
 11 
27.356
 21 
18.288
 0 
LINE
 8 
0
 62 
 7 
 10 
40.64
 20 
3.81
 11 
20.32
 21 
3.81
 0 
LINE
 8 
0
 62 
 7 
 10 
40.64
 20 
3.81
 11 
40.64
 21 
1.27
 0 
LINE
 8 
0
 62 
 7 
 10 
40.64
 20 
1.27
 11 
20.32
 21 
1.27
 0 
LINE
 8 
0
 62 
 7 
 10 
20.32
 20 
1.27
 11 
20.32
 21 
3.81
 0 
LINE
 8 
0
 62 
 7 
 10 
19.05
 20 
0.635
 11 
41.91
 21 
0.635
 0 
LINE
 8 
0
 62 
 7 
 10 
41.91
 20 
0.635
 11 
41.91
 21 
17.78
 0 
LINE
 8 
0
 62 
 7 
 10 
41.91
 20 
17.78
 11 
19.05
 21 
17.78
 0 
LINE
 8 
0
 62 
 7 
 10 
19.05
 20 
17.78
 11 
19.05
 21 
0.635
 0 
CIRCLE
 8 
0
 62 
 7 
 10 
36.195
 20 
61.595
 40 
0.965
 0 
CIRCLE
 8 
0
 62 
 7 
 10 
36.195
 20 
61.595
 40 
0.508
 0 
CIRCLE
 8 
0
 62 
 7 
 10 
33.655
 20 
61.595
 40 
0.965
 0 
CIRCLE
 8 
0
 62 
 7 
 10 
33.655
 20 
61.595
 40 
0.508
 0 
LINE
 8 
0
 62 
 7 
 10 
32.385
 20 
62.865
 11 
32.385
 21 
60.325
 0 
LINE
 8 
0
 62 
 7 
 10 
32.385
 20 
60.325
 11 
37.465
 21 
60.325
 0 
LINE
 8 
0
 62 
 7 
 10 
37.465
 20 
60.325
 11 
37.465
 21 
62.865
 0 
LINE
 8 
0
 62 
 7 
 10 
37.465
 20 
62.865
 11 
32.385
 21 
62.865
 0 
CIRCLE
 8 
0
 62 
 7 
 10 
16.51
 20 
61.595
 40 
0.965
 0 
CIRCLE
 8 
0
 62 
 7 
 10 
16.51
 20 
61.595
 40 
0.508
 0 
CIRCLE
 8 
0
 62 
 7 
 10 
13.97
 20 
61.595
 40 
0.965
 0 
CIRCLE
 8 
0
 62 
 7 
 10 
13.97
 20 
61.595
 40 
0.508
 0 
CIRCLE
 8 
0
 62 
 7 
 10 
11.43
 20 
61.595
 40 
0.965
 0 
CIRCLE
 8 
0
 62 
 7 
 10 
11.43
 20 
61.595
 40 
0.508
 0 
CIRCLE
 8 
0
 62 
 7 
 10 
8.89
 20 
61.595
 40 
0.965
 0 
CIRCLE
 8 
0
 62 
 7 
 10 
8.89
 20 
61.595
 40 
0.508
 0 
LINE
 8 
0
 62 
 7 
 10 
7.62
 20 
62.865
 11 
17.78
 21 
62.865
 0 
LINE
 8 
0
 62 
 7 
 10 
7.62
 20 
62.865
 11 
7.62
 21 
60.325
 0 
LINE
 8 
0
 62 
 7 
 10 
7.62
 20 
60.325
 11 
17.78
 21 
60.325
 0 
LINE
 8 
0
 62 
 7 
 10 
17.78
 20 
60.325
 11 
17.78
 21 
62.865
 0 
ENDSEC
 0 
EOF
